<svg xmlns="http://www.w3.org/2000/svg" xmlns:xlink="http://www.w3.org/1999/xlink" width="250" viewBox="0 0 187.5 56.249996" height="75" preserveAspectRatio="xMidYMid meet"><defs><clipPath id="ca63a642a2"><path d="M 178 15.265625 L 184 15.265625 L 184 21 L 178 21 Z M 178 15.265625 " clip-rule="nonzero"></path></clipPath></defs><path fill="#111111" d="M 9.769531 33.820312 C 15.164062 33.820312 18.4375 29.925781 18.4375 24.953125 C 18.4375 19.984375 15.164062 16.085938 9.769531 16.085938 L 4.121094 16.085938 L 4.121094 33.820312 Z M 6.347656 18.109375 L 9.769531 18.109375 C 13.664062 18.109375 16.214844 20.78125 16.214844 24.953125 C 16.214844 29.125 13.664062 31.796875 9.769531 31.796875 L 6.347656 31.796875 Z M 6.347656 18.109375 " fill-opacity="1" fill-rule="nonzero"></path><path fill="#111111" d="M 22.191406 19.035156 C 22.964844 19.035156 23.589844 18.410156 23.589844 17.660156 C 23.589844 16.886719 22.964844 16.261719 22.191406 16.261719 C 21.417969 16.261719 20.816406 16.886719 20.816406 17.660156 C 20.816406 18.410156 21.417969 19.035156 22.191406 19.035156 Z M 21.09375 20.957031 L 21.09375 33.820312 L 23.265625 33.820312 L 23.265625 20.957031 Z M 21.09375 20.957031 " fill-opacity="1" fill-rule="nonzero"></path><path fill="#111111" d="M 37.449219 23.90625 L 37.449219 23.753906 C 36.449219 21.855469 34.550781 20.683594 32.328125 20.683594 C 28.359375 20.683594 25.757812 23.53125 25.757812 27.351562 C 25.757812 31.125 28.308594 34.070312 32.203125 34.070312 C 34.753906 34.070312 36.652344 32.773438 37.449219 30.796875 L 37.449219 32.671875 C 37.449219 36.417969 35.550781 37.992188 32.527344 37.992188 C 30.082031 37.992188 28.132812 36.867188 27.285156 36.292969 L 27.285156 38.269531 C 28.730469 39.316406 30.90625 39.890625 32.929688 39.890625 C 37.125 39.890625 39.625 37.34375 39.625 32.671875 L 39.625 20.957031 L 37.800781 20.957031 Z M 32.730469 32.121094 C 29.957031 32.121094 27.984375 30.148438 27.984375 27.375 C 27.984375 24.628906 29.957031 22.65625 32.730469 22.65625 C 35.476562 22.65625 37.425781 24.730469 37.425781 27.375 C 37.425781 30.050781 35.476562 32.121094 32.730469 32.121094 Z M 32.730469 32.121094 " fill-opacity="1" fill-rule="nonzero"></path><path fill="#111111" d="M 43.925781 19.035156 C 44.699219 19.035156 45.324219 18.410156 45.324219 17.660156 C 45.324219 16.886719 44.699219 16.261719 43.925781 16.261719 C 43.152344 16.261719 42.550781 16.886719 42.550781 17.660156 C 42.550781 18.410156 43.152344 19.035156 43.925781 19.035156 Z M 42.828125 20.957031 L 42.828125 33.820312 L 45 33.820312 L 45 20.957031 Z M 42.828125 20.957031 " fill-opacity="1" fill-rule="nonzero"></path><path fill="#111111" d="M 51.265625 20.957031 L 51.265625 17.261719 L 49.070312 17.261719 L 49.070312 20.957031 L 47.171875 20.957031 L 47.171875 22.679688 L 49.070312 22.679688 L 49.070312 33.820312 L 51.265625 33.820312 L 51.265625 22.679688 L 53.988281 22.679688 L 53.988281 20.957031 Z M 51.265625 20.957031 " fill-opacity="1" fill-rule="nonzero"></path><path fill="#111111" d="M 66.429688 23.878906 L 66.429688 23.753906 C 65.429688 21.855469 63.53125 20.683594 61.308594 20.683594 C 57.335938 20.683594 54.738281 23.53125 54.738281 27.351562 C 54.738281 31.125 57.289062 34.070312 61.183594 34.070312 C 63.734375 34.070312 65.632812 32.773438 66.429688 30.796875 L 66.429688 33.820312 L 68.628906 33.820312 L 68.628906 20.957031 L 66.753906 20.957031 Z M 61.710938 32.121094 C 58.9375 32.121094 56.964844 30.148438 56.964844 27.375 C 56.964844 24.628906 58.9375 22.65625 61.710938 22.65625 C 64.457031 22.65625 66.40625 24.730469 66.40625 27.375 C 66.40625 30.050781 64.457031 32.121094 61.710938 32.121094 Z M 61.710938 32.121094 " fill-opacity="1" fill-rule="nonzero"></path><path fill="#111111" d="M 71.832031 16.085938 L 71.832031 33.820312 L 74.003906 33.820312 L 74.003906 16.085938 Z M 71.832031 16.085938 " fill-opacity="1" fill-rule="nonzero"></path><path fill="#111111" d="M 87.023438 20.855469 C 84.625 20.855469 82.875 22.007812 82.101562 24.054688 L 82 20.976562 L 81.027344 20.976562 L 81.027344 33.820312 L 82.125 33.820312 L 82.125 26.828125 C 82.125 23.828125 83.800781 21.78125 86.773438 21.78125 C 89.046875 21.78125 91.042969 23.003906 91.042969 26.402344 L 91.042969 33.820312 L 92.144531 33.820312 L 92.144531 26.277344 C 92.144531 22.378906 89.769531 20.855469 87.023438 20.855469 Z M 87.023438 20.855469 " fill-opacity="1" fill-rule="nonzero"></path><path fill="#111111" d="M 101.4375 34.070312 C 105.1875 34.070312 108.109375 31.171875 108.109375 27.453125 C 108.109375 23.703125 105.1875 20.855469 101.4375 20.855469 C 97.667969 20.855469 94.746094 23.703125 94.746094 27.453125 C 94.746094 31.171875 97.667969 34.070312 101.4375 34.070312 Z M 101.4375 33.097656 C 98.265625 33.097656 95.792969 30.597656 95.792969 27.425781 C 95.792969 24.277344 98.265625 21.832031 101.4375 21.832031 C 104.585938 21.832031 107.035156 24.277344 107.035156 27.425781 C 107.035156 30.597656 104.585938 33.097656 101.4375 33.097656 Z M 101.4375 33.097656 " fill-opacity="1" fill-rule="nonzero"></path><path fill="#111111" d="M 125.046875 20.855469 C 122.773438 20.855469 121.226562 22.054688 120.550781 23.929688 C 119.925781 22.007812 118.378906 20.855469 116.28125 20.855469 C 114.179688 20.855469 112.707031 21.929688 112.007812 23.628906 L 111.90625 20.976562 L 110.957031 20.976562 L 110.957031 33.820312 L 112.03125 33.820312 L 112.03125 26.253906 C 112.03125 23.480469 113.605469 21.78125 116.003906 21.78125 C 118.277344 21.78125 119.800781 23.453125 119.800781 26.253906 L 119.800781 33.820312 L 120.875 33.820312 L 120.875 26.253906 C 120.875 23.480469 122.449219 21.78125 124.847656 21.78125 C 127.121094 21.78125 128.644531 23.453125 128.644531 26.253906 L 128.644531 33.820312 L 129.71875 33.820312 L 129.71875 26.078125 C 129.71875 22.878906 127.894531 20.855469 125.046875 20.855469 Z M 125.046875 20.855469 " fill-opacity="1" fill-rule="nonzero"></path><path fill="#111111" d="M 144.675781 24.703125 L 144.675781 24.628906 C 143.675781 22.332031 141.652344 20.855469 138.929688 20.855469 C 135.035156 20.855469 132.335938 23.628906 132.335938 27.425781 C 132.335938 31.222656 135.007812 34.070312 138.878906 34.070312 C 141.753906 34.070312 143.777344 32.472656 144.675781 30.199219 L 144.675781 33.820312 L 145.773438 33.820312 L 145.773438 20.976562 L 144.800781 20.976562 Z M 139.054688 33.097656 C 135.78125 33.097656 133.410156 30.722656 133.410156 27.453125 C 133.410156 24.179688 135.78125 21.832031 139.054688 21.832031 C 142.351562 21.832031 144.675781 24.328125 144.675781 27.453125 C 144.675781 30.574219 142.351562 33.097656 139.054688 33.097656 Z M 139.054688 33.097656 " fill-opacity="1" fill-rule="nonzero"></path><path fill="#111111" d="M 160.996094 24.628906 C 159.996094 22.332031 157.972656 20.855469 155.25 20.855469 C 151.351562 20.855469 148.65625 23.628906 148.65625 27.425781 C 148.65625 31.222656 151.328125 34.070312 155.199219 34.070312 C 158.074219 34.070312 160.09375 32.472656 160.996094 30.199219 L 160.996094 33.820312 L 162.09375 33.820312 L 162.09375 16.085938 L 160.996094 16.085938 Z M 155.375 33.097656 C 152.101562 33.097656 149.730469 30.722656 149.730469 27.453125 C 149.730469 24.179688 152.101562 21.832031 155.375 21.832031 C 158.671875 21.832031 160.996094 24.328125 160.996094 27.453125 C 160.996094 30.574219 158.671875 33.097656 155.375 33.097656 Z M 155.375 33.097656 " fill-opacity="1" fill-rule="nonzero"></path><path fill="#111111" d="M 169.894531 34.070312 C 172.71875 34.070312 174.492188 32.847656 174.492188 30.675781 C 174.492188 26.027344 166.472656 27.703125 166.472656 24.128906 C 166.472656 22.753906 167.773438 21.78125 169.597656 21.78125 C 171.394531 21.78125 172.695312 22.753906 172.917969 24.378906 L 173.96875 24.355469 C 173.769531 22.207031 171.917969 20.90625 169.621094 20.90625 C 167.199219 20.90625 165.425781 22.207031 165.425781 24.179688 C 165.425781 28.574219 173.394531 27 173.394531 30.699219 C 173.394531 32.273438 172.070312 33.171875 169.921875 33.171875 C 167.773438 33.171875 166.097656 32.273438 165.800781 30.25 L 164.726562 30.273438 C 165.023438 32.847656 167.097656 34.070312 169.894531 34.070312 Z M 169.894531 34.070312 " fill-opacity="1" fill-rule="nonzero"></path><g clip-path="url(#ca63a642a2)"><path fill="#f34d00" d="M 183.074219 17.761719 C 183.074219 18.09375 183.007812 18.414062 182.882812 18.71875 C 182.753906 19.023438 182.574219 19.296875 182.339844 19.53125 C 182.105469 19.765625 181.835938 19.945312 181.53125 20.070312 C 181.222656 20.199219 180.90625 20.261719 180.574219 20.261719 C 180.242188 20.261719 179.925781 20.199219 179.617188 20.070312 C 179.3125 19.945312 179.042969 19.765625 178.808594 19.53125 C 178.574219 19.296875 178.394531 19.023438 178.265625 18.71875 C 178.140625 18.414062 178.078125 18.09375 178.078125 17.761719 C 178.078125 17.433594 178.140625 17.113281 178.265625 16.808594 C 178.394531 16.5 178.574219 16.230469 178.808594 15.996094 C 179.042969 15.761719 179.3125 15.582031 179.617188 15.457031 C 179.925781 15.328125 180.242188 15.265625 180.574219 15.265625 C 180.90625 15.265625 181.222656 15.328125 181.53125 15.457031 C 181.835938 15.582031 182.105469 15.761719 182.339844 15.996094 C 182.574219 16.230469 182.753906 16.5 182.882812 16.808594 C 183.007812 17.113281 183.074219 17.433594 183.074219 17.761719 Z M 183.074219 17.761719 " fill-opacity="1" fill-rule="nonzero"></path></g></svg>