<svg xmlns="http://www.w3.org/2000/svg" xmlns:xlink="http://www.w3.org/1999/xlink" width="1000" viewBox="0 0 750 449.999984" height="600" preserveAspectRatio="xMidYMid meet"><defs><g></g></defs><g fill="#111111" fill-opacity="1"><g transform="translate(-4.275314, 349.838951)"><g><path d="M 12.078125 -122.40625 L 39.203125 -122.40625 L 75.546875 -33.703125 L 76.984375 -33.703125 L 113.328125 -122.40625 L 140.453125 -122.40625 L 140.453125 0 L 119.1875 0 L 119.1875 -84.09375 L 118.046875 -84.09375 L 84.21875 -0.359375 L 68.3125 -0.359375 L 34.484375 -84.28125 L 33.359375 -84.28125 L 33.359375 0 L 12.078125 0 Z M 12.078125 -122.40625 "></path></g></g></g><g fill="#111111" fill-opacity="1"><g transform="translate(139.670661, 349.838951)"><g><path d="M 37.53125 1.859375 C 31.71875 1.859375 26.488281 0.8125 21.84375 -1.28125 C 17.195312 -3.375 13.53125 -6.472656 10.84375 -10.578125 C 8.15625 -14.679688 6.8125 -19.742188 6.8125 -25.765625 C 6.8125 -30.941406 7.765625 -35.222656 9.671875 -38.609375 C 11.585938 -41.992188 14.195312 -44.703125 17.5 -46.734375 C 20.8125 -48.765625 24.550781 -50.304688 28.71875 -51.359375 C 32.882812 -52.421875 37.195312 -53.191406 41.65625 -53.671875 C 47.039062 -54.234375 51.40625 -54.742188 54.75 -55.203125 C 58.09375 -55.660156 60.53125 -56.375 62.0625 -57.34375 C 63.601562 -58.320312 64.375 -59.847656 64.375 -61.921875 L 64.375 -62.28125 C 64.375 -66.78125 63.035156 -70.265625 60.359375 -72.734375 C 57.691406 -75.210938 53.847656 -76.453125 48.828125 -76.453125 C 43.523438 -76.453125 39.332031 -75.296875 36.25 -72.984375 C 33.164062 -70.671875 31.082031 -67.941406 30 -64.796875 L 9.796875 -67.65625 C 11.390625 -73.238281 14.019531 -77.910156 17.6875 -81.671875 C 21.351562 -85.441406 25.835938 -88.269531 31.140625 -90.15625 C 36.441406 -92.050781 42.300781 -93 48.71875 -93 C 53.132812 -93 57.535156 -92.476562 61.921875 -91.4375 C 66.304688 -90.40625 70.3125 -88.703125 73.9375 -86.328125 C 77.5625 -83.960938 80.476562 -80.75 82.6875 -76.6875 C 84.90625 -72.625 86.015625 -67.539062 86.015625 -61.4375 L 86.015625 0 L 65.203125 0 L 65.203125 -12.609375 L 64.484375 -12.609375 C 63.171875 -10.054688 61.328125 -7.675781 58.953125 -5.46875 C 56.585938 -3.257812 53.617188 -1.484375 50.046875 -0.140625 C 46.484375 1.191406 42.3125 1.859375 37.53125 1.859375 Z M 43.15625 -14.046875 C 47.5 -14.046875 51.265625 -14.910156 54.453125 -16.640625 C 57.640625 -18.378906 60.097656 -20.679688 61.828125 -23.546875 C 63.566406 -26.421875 64.4375 -29.550781 64.4375 -32.9375 L 64.4375 -43.75 C 63.757812 -43.195312 62.613281 -42.679688 61 -42.203125 C 59.382812 -41.722656 57.578125 -41.300781 55.578125 -40.9375 C 53.585938 -40.582031 51.613281 -40.265625 49.65625 -39.984375 C 47.707031 -39.703125 46.019531 -39.460938 44.59375 -39.265625 C 41.363281 -38.828125 38.472656 -38.109375 35.921875 -37.109375 C 33.367188 -36.117188 31.351562 -34.734375 29.875 -32.953125 C 28.40625 -31.179688 27.671875 -28.90625 27.671875 -26.125 C 27.671875 -22.132812 29.125 -19.125 32.03125 -17.09375 C 34.945312 -15.0625 38.65625 -14.046875 43.15625 -14.046875 Z M 43.15625 -14.046875 "></path></g></g></g><g fill="#111111" fill-opacity="1"><g transform="translate(227.7924, 349.838951)"><g><path d="M 11.125 0 L 11.125 -91.8125 L 32.09375 -91.8125 L 32.09375 -76.5 L 33.046875 -76.5 C 34.722656 -81.800781 37.601562 -85.894531 41.6875 -88.78125 C 45.769531 -91.675781 50.441406 -93.125 55.703125 -93.125 C 56.898438 -93.125 58.242188 -93.070312 59.734375 -92.96875 C 61.234375 -92.875 62.476562 -92.726562 63.46875 -92.53125 L 63.46875 -72.625 C 62.550781 -72.9375 61.109375 -73.222656 59.140625 -73.484375 C 57.171875 -73.742188 55.269531 -73.875 53.4375 -73.875 C 49.488281 -73.875 45.953125 -73.023438 42.828125 -71.328125 C 39.703125 -69.640625 37.238281 -67.300781 35.4375 -64.3125 C 33.644531 -61.320312 32.75 -57.875 32.75 -53.96875 L 32.75 0 Z M 11.125 0 "></path></g></g></g><g fill="#111111" fill-opacity="1"><g transform="translate(285.969848, 349.838951)"><g><path d="M 30.84375 -28.8125 L 30.78125 -54.921875 L 34.25 -54.921875 L 67.234375 -91.8125 L 92.53125 -91.8125 L 51.9375 -46.625 L 47.453125 -46.625 Z M 11.125 0 L 11.125 -122.40625 L 32.75 -122.40625 L 32.75 0 Z M 68.734375 0 L 38.84375 -41.78125 L 53.4375 -57.015625 L 94.609375 0 Z M 68.734375 0 "></path></g></g></g><g fill="#111111" fill-opacity="1"><g transform="translate(373.135287, 349.838951)"><g><path d="M 51.765625 1.796875 C 42.554688 1.796875 34.613281 -0.125 27.9375 -3.96875 C 21.269531 -7.820312 16.140625 -13.28125 12.546875 -20.34375 C 8.960938 -27.414062 7.171875 -35.753906 7.171875 -45.359375 C 7.171875 -54.804688 8.972656 -63.101562 12.578125 -70.25 C 16.179688 -77.40625 21.226562 -82.984375 27.71875 -86.984375 C 34.21875 -90.992188 41.851562 -93 50.625 -93 C 56.28125 -93 61.628906 -92.09375 66.671875 -90.28125 C 71.710938 -88.46875 76.175781 -85.664062 80.0625 -81.875 C 83.945312 -78.09375 87.003906 -73.28125 89.234375 -67.4375 C 91.460938 -61.601562 92.578125 -54.664062 92.578125 -46.625 L 92.578125 -39.984375 L 17.328125 -39.984375 L 17.328125 -54.5625 L 71.84375 -54.5625 C 71.800781 -58.707031 70.90625 -62.40625 69.15625 -65.65625 C 67.40625 -68.90625 64.960938 -71.460938 61.828125 -73.328125 C 58.703125 -75.203125 55.066406 -76.140625 50.921875 -76.140625 C 46.503906 -76.140625 42.617188 -75.070312 39.265625 -72.9375 C 35.921875 -70.8125 33.320312 -68.023438 31.46875 -64.578125 C 29.613281 -61.128906 28.664062 -57.351562 28.625 -53.25 L 28.625 -40.53125 C 28.625 -35.1875 29.597656 -30.609375 31.546875 -26.796875 C 33.503906 -22.992188 36.234375 -20.085938 39.734375 -18.078125 C 43.242188 -16.066406 47.351562 -15.0625 52.0625 -15.0625 C 55.207031 -15.0625 58.054688 -15.507812 60.609375 -16.40625 C 63.160156 -17.300781 65.367188 -18.625 67.234375 -20.375 C 69.109375 -22.132812 70.523438 -24.304688 71.484375 -26.890625 L 91.6875 -24.625 C 90.414062 -19.28125 87.992188 -14.625 84.421875 -10.65625 C 80.859375 -6.695312 76.304688 -3.628906 70.765625 -1.453125 C 65.222656 0.710938 58.890625 1.796875 51.765625 1.796875 Z M 51.765625 1.796875 "></path></g></g></g><g fill="#111111" fill-opacity="1"><g transform="translate(464.305227, 349.838951)"><g><path d="M 56.953125 -91.8125 L 56.953125 -75.078125 L 4.1875 -75.078125 L 4.1875 -91.8125 Z M 17.21875 -113.796875 L 38.84375 -113.796875 L 38.84375 -27.609375 C 38.84375 -24.703125 39.289062 -22.476562 40.1875 -20.9375 C 41.09375 -19.40625 42.28125 -18.359375 43.75 -17.796875 C 45.226562 -17.242188 46.863281 -16.96875 48.65625 -16.96875 C 50.007812 -16.96875 51.253906 -17.066406 52.390625 -17.265625 C 53.523438 -17.472656 54.390625 -17.65625 54.984375 -17.8125 L 58.640625 -0.890625 C 57.484375 -0.492188 55.835938 -0.0546875 53.703125 0.421875 C 51.566406 0.898438 48.96875 1.175781 45.90625 1.25 C 40.488281 1.414062 35.609375 0.59375 31.265625 -1.21875 C 26.921875 -3.03125 23.484375 -5.847656 20.953125 -9.671875 C 18.421875 -13.503906 17.175781 -18.289062 17.21875 -24.03125 Z M 17.21875 -113.796875 "></path></g></g></g><g fill="#111111" fill-opacity="1"><g transform="translate(519.673536, 349.838951)"><g><path d="M 11.125 0 L 11.125 -91.8125 L 32.75 -91.8125 L 32.75 0 Z M 22 -104.84375 C 18.570312 -104.84375 15.617188 -105.984375 13.140625 -108.265625 C 10.671875 -110.554688 9.4375 -113.316406 9.4375 -116.546875 C 9.4375 -119.816406 10.671875 -122.597656 13.140625 -124.890625 C 15.617188 -127.179688 18.570312 -128.328125 22 -128.328125 C 25.46875 -128.328125 28.425781 -127.179688 30.875 -124.890625 C 33.320312 -122.597656 34.546875 -119.816406 34.546875 -116.546875 C 34.546875 -113.316406 33.320312 -110.554688 30.875 -108.265625 C 28.425781 -105.984375 25.46875 -104.84375 22 -104.84375 Z M 22 -104.84375 "></path></g></g></g><g fill="#111111" fill-opacity="1"><g transform="translate(554.959495, 349.838951)"><g><path d="M 32.75 -53.796875 L 32.75 0 L 11.125 0 L 11.125 -91.8125 L 31.796875 -91.8125 L 31.796875 -76.203125 L 32.875 -76.203125 C 34.988281 -81.347656 38.363281 -85.429688 43 -88.453125 C 47.644531 -91.484375 53.394531 -93 60.25 -93 C 66.582031 -93 72.109375 -91.644531 76.828125 -88.9375 C 81.554688 -86.226562 85.222656 -82.300781 87.828125 -77.15625 C 90.441406 -72.019531 91.726562 -65.785156 91.6875 -58.453125 L 91.6875 0 L 70.046875 0 L 70.046875 -55.109375 C 70.046875 -61.242188 68.460938 -66.046875 65.296875 -69.515625 C 62.128906 -72.984375 57.753906 -74.71875 52.171875 -74.71875 C 48.390625 -74.71875 45.035156 -73.890625 42.109375 -72.234375 C 39.179688 -70.578125 36.890625 -68.191406 35.234375 -65.078125 C 33.578125 -61.972656 32.75 -58.210938 32.75 -53.796875 Z M 32.75 -53.796875 "></path></g></g></g><g fill="#111111" fill-opacity="1"><g transform="translate(648.998351, 349.838951)"><g><path d="M 51.046875 36.34375 C 43.273438 36.34375 36.597656 35.296875 31.015625 33.203125 C 25.441406 31.109375 20.957031 28.304688 17.5625 24.796875 C 14.175781 21.296875 11.828125 17.414062 10.515625 13.15625 L 30 8.421875 C 30.875 10.222656 32.148438 12.007812 33.828125 13.78125 C 35.503906 15.550781 37.765625 17.023438 40.609375 18.203125 C 43.460938 19.378906 47.0625 19.96875 51.40625 19.96875 C 57.539062 19.96875 62.617188 18.484375 66.640625 15.515625 C 70.671875 12.546875 72.6875 7.671875 72.6875 0.890625 L 72.6875 -16.5 L 71.609375 -16.5 C 70.492188 -14.269531 68.867188 -11.976562 66.734375 -9.625 C 64.597656 -7.269531 61.785156 -5.296875 58.296875 -3.703125 C 54.816406 -2.109375 50.445312 -1.3125 45.1875 -1.3125 C 38.132812 -1.3125 31.75 -2.972656 26.03125 -6.296875 C 20.3125 -9.628906 15.769531 -14.613281 12.40625 -21.25 C 9.039062 -27.882812 7.359375 -36.203125 7.359375 -46.203125 C 7.359375 -56.285156 9.039062 -64.800781 12.40625 -71.75 C 15.769531 -78.707031 20.320312 -83.988281 26.0625 -87.59375 C 31.800781 -91.195312 38.195312 -93 45.25 -93 C 50.625 -93 55.054688 -92.09375 58.546875 -90.28125 C 62.035156 -88.46875 64.8125 -86.296875 66.875 -83.765625 C 68.945312 -81.234375 70.523438 -78.851562 71.609375 -76.625 L 72.796875 -76.625 L 72.796875 -91.8125 L 94.140625 -91.8125 L 94.140625 1.5 C 94.140625 9.34375 92.265625 15.832031 88.515625 20.96875 C 84.773438 26.113281 79.65625 29.960938 73.15625 32.515625 C 66.664062 35.066406 59.296875 36.34375 51.046875 36.34375 Z M 51.21875 -18.296875 C 55.800781 -18.296875 59.707031 -19.410156 62.9375 -21.640625 C 66.164062 -23.867188 68.613281 -27.070312 70.28125 -31.25 C 71.957031 -35.4375 72.796875 -40.460938 72.796875 -46.328125 C 72.796875 -52.097656 71.96875 -57.15625 70.3125 -61.5 C 68.664062 -65.84375 66.238281 -69.21875 63.03125 -71.625 C 59.820312 -74.039062 55.882812 -75.25 51.21875 -75.25 C 46.394531 -75.25 42.367188 -73.992188 39.140625 -71.484375 C 35.921875 -68.972656 33.492188 -65.535156 31.859375 -61.171875 C 30.222656 -56.804688 29.40625 -51.859375 29.40625 -46.328125 C 29.40625 -40.703125 30.234375 -35.785156 31.890625 -31.578125 C 33.546875 -27.378906 35.992188 -24.113281 39.234375 -21.78125 C 42.484375 -19.457031 46.476562 -18.296875 51.21875 -18.296875 Z M 51.21875 -18.296875 "></path></g></g></g><path stroke-linecap="butt" transform="matrix(1.443776, 0, 0, 1.443776, 18.081197, 42.708429)" fill="none" stroke-linejoin="miter" d="M 117.633742 141.205907 C 118.08828 141.603627 118.334487 142.106865 118.372366 142.712915 C 118.429183 143.340609 118.258731 143.92772 117.861011 144.479658 C 113.74312 149.525563 109.389843 152.049868 104.79577 152.049868 C 104.644258 152.049868 104.492745 152.049868 104.341233 152.049868 C 101.002548 151.974112 97.736914 150.653789 94.549742 148.094311 C 91.36257 145.532128 88.156459 142.193443 84.931409 138.075552 C 81.703653 133.957661 78.383908 129.450166 74.969467 124.555774 C 71.381869 119.56398 67.607586 114.488314 63.641207 109.328775 C 59.693768 104.16653 55.50012 99.642802 51.060265 95.752179 C 46.317385 96.910167 41.658378 97.451283 37.085949 97.375527 C 35.284034 104.68059 33.509174 112.004593 31.764075 119.347534 C 30.018977 126.690476 28.384807 133.681692 26.866977 140.323888 C 25.349147 146.982318 24.050469 152.969765 22.968238 158.283522 C 21.886006 163.613513 21.109505 167.950556 20.636029 171.28924 C 20.863297 170.740008 21.136561 170.112313 21.46123 169.411568 C 21.688499 168.881275 22.086219 168.491672 22.654391 168.245464 C 23.244207 168.018195 23.812379 168.026312 24.364317 168.27252 C 24.989305 168.575545 25.397848 169.013848 25.587238 169.58202 C 25.776629 170.171836 25.75769 170.740008 25.530421 171.28924 C 24.050469 174.554874 22.808609 176.981779 21.802133 178.575365 C 20.795658 180.168951 19.743188 180.967097 18.642017 180.967097 C 18.338992 180.967097 18.035967 180.89134 17.732942 180.739828 C 17.105248 180.49362 16.612833 180.036377 16.252991 179.37351 C 15.909382 178.726877 15.75787 177.485016 15.795748 175.645223 C 15.833626 173.824368 16.136651 171.09985 16.707528 167.477079 C 17.294639 163.870543 18.233475 159.032967 19.524036 152.961648 C 20.814597 146.906562 22.502878 139.317413 24.591585 130.191495 C 26.696526 121.062871 29.345288 110.010581 32.53246 97.031918 C 28.263056 96.558442 25.019067 95.487033 22.797786 93.81769 C 20.579212 92.145643 19.193955 90.419483 18.642017 88.636507 C 17.714003 85.922811 18.414748 83.666358 20.749663 81.861737 C 22.381127 80.552236 24.534768 79.897486 27.210586 79.897486 C 29.902637 79.897486 32.922063 80.47648 36.260748 81.634468 C 36.715285 79.699979 37.199584 77.743845 37.710938 75.771478 C 38.224998 73.780172 38.709297 71.729343 39.163834 69.624403 C 40.946811 62.641303 42.635092 55.885472 44.228678 49.359616 C 45.82497 42.831054 47.285982 36.789496 48.611716 31.229531 C 49.940155 25.669566 51.033209 20.907747 51.885467 16.941368 C 52.036979 16.313674 52.361648 15.832081 52.854064 15.488472 C 53.365418 15.12863 53.936295 15.025818 54.561284 15.17733 C 55.188979 15.347782 55.651633 15.688685 55.957363 16.200039 C 56.260388 16.69516 56.374022 17.255215 56.298266 17.880204 C 55.367547 21.846583 54.23932 26.608402 52.910881 32.168367 C 51.601381 37.709393 50.15119 43.76989 48.554899 50.355269 C 46.961313 56.921709 45.310909 63.693774 43.603689 70.676873 C 43.054457 72.708763 42.521458 74.794764 42.010103 76.937583 C 41.517688 79.064168 40.995511 81.255687 40.443573 83.51214 C 42.399706 84.442859 44.382896 85.487213 46.393141 86.6452 C 48.270813 87.819422 50.178246 89.185739 52.112735 90.741447 C 57.312858 89.261495 62.653671 86.948225 68.13788 83.798931 C 73.622088 80.649637 78.98184 76.512807 84.219841 71.38844 C 89.474076 66.24784 94.314357 59.908669 98.735273 52.376337 C 102.073957 46.778493 104.560385 41.305107 106.191849 35.953472 C 107.823313 30.582897 108.561936 25.631688 108.410424 21.097137 C 108.258911 16.543648 107.217263 12.671964 105.280069 9.484792 C 100.840213 2.482754 92.406924 -0.590784 79.977494 0.261473 C 73.678906 0.737655 67.245039 2.047155 60.681304 4.189974 C 54.114864 6.316559 47.797337 9.114128 41.726017 12.585386 C 35.670931 16.04041 30.254362 19.882332 25.473604 24.113858 C 20.692846 28.345384 17.021375 32.755477 14.459192 37.349551 C 9.486338 46.03987 8.985805 54.310826 12.949479 62.167827 C 13.176747 62.71706 13.18757 63.285231 12.97924 63.875047 C 12.78985 64.443219 12.427302 64.88964 11.897008 65.211603 C 11.347776 65.438872 10.776899 65.457811 10.189788 65.268421 C 9.618911 65.060091 9.175196 64.689427 8.850527 64.159133 C 4.202342 54.824886 4.75428 45.147029 10.503635 35.12827 C 13.290382 30.158122 17.191827 25.423358 22.199853 20.926686 C 27.210586 16.411074 32.884185 12.35 39.220651 8.743464 C 45.557117 5.120693 52.199314 2.179729 59.144535 -0.0794297 C 66.108695 -2.335883 72.975455 -3.740078 79.750225 -4.292016 C 85.575337 -4.670797 90.45079 -4.292016 94.379291 -3.152967 C 98.307791 -2.032858 101.43003 -0.52585 103.7433 1.373466 C 106.078214 3.270077 107.83143 5.196449 109.008357 7.149877 C 111.343271 10.794292 112.62301 15.166508 112.850279 20.271936 C 113.080253 25.355719 112.338924 30.829105 110.631704 36.6948 C 108.924484 42.55779 106.237844 48.56147 102.577195 54.711251 C 99.084293 60.687875 94.91229 66.304657 90.05307 71.558892 C 85.196556 76.796893 80.007255 81.282743 74.485168 85.021853 C 68.5843 89.139744 62.48322 92.25116 56.184632 94.356101 C 60.378279 98.32248 64.323013 102.735279 68.024245 107.591793 C 71.722772 112.451013 75.24273 117.239888 78.58412 121.966535 C 81.695536 126.330634 84.720374 130.445819 87.664044 134.317503 C 90.623947 138.208126 93.497272 141.376359 96.286724 143.824908 C 99.095115 146.270751 101.816927 147.542373 104.454867 147.637068 C 107.717795 147.712825 111.059185 145.694463 114.473626 141.576571 C 114.871346 141.10039 115.355645 140.827126 115.926522 140.75137 C 116.513633 140.675614 117.081804 140.827126 117.633742 141.205907 Z M 22.854604 87.356768 C 23.233385 88.436294 24.315616 89.510409 26.098593 90.570996 C 27.903214 91.615349 30.397758 92.326916 33.58493 92.705697 C 34.115223 90.619696 34.656339 88.447116 35.208277 86.187958 C 33.804082 85.638725 32.418825 85.192305 31.052508 84.851402 C 29.70513 84.49156 28.441624 84.310286 27.267403 84.310286 C 25.635939 84.310286 24.353494 84.662011 23.425481 85.362756 C 22.816725 85.914694 22.627335 86.577561 22.854604 87.356768 Z M 38.111364 92.819332 C 40.843999 92.819332 43.603689 92.554185 46.393141 92.023892 C 45.613934 91.471953 44.837433 90.960599 44.058226 90.487123 C 43.357481 90.108342 42.616153 89.707916 41.839652 89.291257 C 41.079384 88.855659 40.227126 88.398416 39.277468 87.924939 C 39.125956 88.779902 38.955504 89.613221 38.766114 90.430306 C 38.576723 91.244685 38.357571 92.042831 38.111364 92.819332 Z M 146.759301 87.013159 C 147.311239 87.31889 147.62238 87.781544 147.698137 88.409238 C 147.773893 89.034227 147.660259 89.575343 147.357234 90.032585 C 142.765866 96.40693 138.561396 101.671986 134.749235 105.827756 C 130.953308 109.983525 127.149264 113.427727 123.334397 116.160362 C 120.469189 118.170607 117.633742 119.177083 114.825351 119.177083 C 112.644655 119.177083 110.737222 118.598089 109.105757 117.440101 C 108.023526 116.660894 106.960233 115.275638 105.91588 113.284332 C 104.874232 111.311964 104.314177 108.435934 104.238421 104.661651 C 104.143725 100.884663 105.071739 95.933453 107.027873 89.802611 C 107.027873 89.802611 107.027873 89.764733 107.027873 89.688977 C 109.360082 82.232401 112.092717 76.539863 115.223072 72.611362 C 118.372366 68.685567 121.077945 66.683438 123.334397 66.607682 C 125.12008 66.531926 126.286184 67.308427 126.835417 68.939891 C 127.69038 71.180111 126.675788 74.386222 123.79164 78.56093 C 120.926432 82.7167 116.694907 87.126794 111.097064 91.796623 C 109.389843 97.221309 108.572758 101.471774 108.648515 104.548017 C 108.724271 107.621555 109.151752 109.840129 109.930959 111.206447 C 110.70746 112.553825 111.335154 113.427727 111.808631 113.825447 C 114.143546 115.532668 117.130505 115.067308 120.77492 112.432074 C 124.340873 109.926708 127.94741 106.682719 131.589119 102.697401 C 135.252473 98.693144 139.264847 93.617478 143.628946 87.470402 C 144.007727 86.99422 144.510965 86.702018 145.138659 86.588383 C 145.763648 86.474749 146.304763 86.615439 146.759301 87.013159 Z M 122.509196 71.502075 C 121.656938 72.035074 120.488128 73.182239 119.008177 74.946277 C 117.547164 76.691375 116.040156 79.23462 114.484448 82.573304 C 117.2739 79.859608 119.246268 77.554455 120.404255 75.657844 C 121.581182 73.742294 122.281927 72.357038 122.509196 71.502075 Z M 207.039601 86.872469 C 207.513078 87.270189 207.770108 87.781544 207.807986 88.409238 C 207.845864 89.034227 207.66459 89.575343 207.26687 90.032585 C 197.399623 101.607052 189.591322 106.312054 183.841967 104.147591 C 179.726781 102.591883 177.516323 97.659613 177.210593 89.348074 C 176.358335 90.884843 175.438438 92.64888 174.450902 94.642892 C 173.482305 96.615259 172.686865 98.227784 172.05917 99.480467 C 171.604633 100.638455 171.139273 101.690925 170.665797 102.640584 C 170.21126 103.568597 169.783778 104.336982 169.383353 104.945737 C 169.156084 105.419213 168.750247 106.103725 168.160431 106.99386 C 167.57332 107.886701 166.831992 108.663203 165.941856 109.328775 C 165.049015 109.991642 164.0236 110.162093 162.865613 109.840129 C 161.461417 109.461348 160.408947 108.435934 159.708202 106.766592 C 159.004751 105.097249 158.57727 103.276395 158.425757 101.301322 C 158.274245 99.310016 158.198489 97.686668 158.198489 96.433985 C 158.198489 95.430216 158.198489 94.461618 158.198489 93.530899 C 158.198489 92.602885 158.236367 91.747923 158.312123 90.971421 C 155.598427 94.859338 153.001072 98.882534 150.514644 103.038304 C 148.028217 107.194073 145.382161 111.955892 142.57377 117.326467 C 141.643051 119.109443 140.639281 120.002284 139.557049 120.002284 C 139.159329 120.002284 138.807604 119.877828 138.504579 119.63162 C 138.104153 119.480108 137.755134 119.223078 137.449403 118.863236 C 137.127439 118.522333 136.946166 117.829704 136.908287 116.785351 C 136.870409 115.740997 137.032744 114.128472 137.392586 111.947776 C 137.736195 109.764373 138.407178 106.739536 139.413654 102.867852 C 140.590581 98.124972 141.975837 93.417265 143.569423 88.750141 C 145.163009 84.083017 146.775534 79.88937 148.406998 76.169198 C 148.636973 75.54421 149.042809 75.116728 149.632626 74.88946 C 150.219736 74.643252 150.779791 74.68113 151.310085 75.003094 C 151.937779 75.230363 152.346321 75.638905 152.535712 76.226016 C 152.744042 76.796893 152.725102 77.356948 152.478895 77.90618 C 150.390188 82.800573 148.501694 87.916823 146.813412 93.246813 C 145.14407 98.560571 143.845392 103.200639 142.914673 107.164312 C 145.325344 102.894908 147.695431 98.920413 150.030346 95.240825 C 152.36526 91.539593 154.811104 87.935762 157.373287 84.42392 C 157.619495 84.120895 158.028037 83.704236 158.596209 83.171237 C 159.186025 82.622004 159.981465 82.497548 160.987941 82.800573 C 161.994416 83.200998 162.554471 83.939621 162.668105 85.021853 C 162.800679 86.104085 162.827735 87.924939 162.751978 90.487123 C 162.751978 91.358319 162.733039 92.299861 162.695161 93.30363 C 162.657283 94.310106 162.638344 95.354459 162.638344 96.433985 C 162.638344 98.7689 162.789856 100.676333 163.095587 102.156285 C 163.398612 103.636237 163.671875 104.650829 163.920788 105.202767 C 164.072301 105.02961 164.28063 104.756346 164.545777 104.37486 C 164.810924 103.97714 165.14371 103.473902 165.54143 102.867852 C 165.847161 102.31862 166.207003 101.577291 166.623662 100.646572 C 167.05926 99.718558 167.554381 98.703966 168.103614 97.602796 C 170.132798 93.257636 171.785907 89.916246 173.054823 87.584036 C 174.345384 85.249122 175.457377 83.655536 176.385391 82.800573 C 177.31611 81.948315 178.284708 81.634468 179.288477 81.861737 C 180.54116 82.186406 181.26355 82.954791 181.452941 84.16689 C 181.642331 85.362756 181.737026 86.312414 181.737026 87.013159 C 181.66127 90.657574 181.956178 93.606655 182.619045 95.865814 C 183.284618 98.124972 184.23157 99.480467 185.465314 99.935005 C 186.86951 100.486943 189.109729 99.870071 192.183267 98.087094 C 195.256805 96.301412 199.166366 92.64888 203.909247 87.126794 C 204.288028 86.653317 204.791265 86.396287 205.416254 86.358409 C 206.043948 86.320531 206.585064 86.493688 207.039601 86.872469 Z M 250.869982 87.126794 C 251.42192 87.356768 251.789879 87.762605 251.979269 88.352421 C 252.171365 88.920592 252.152426 89.480647 251.922452 90.032585 C 250.4425 93.068245 248.829975 96.103905 247.084877 99.139564 C 245.339778 102.156285 243.508101 104.934915 241.592551 107.478159 C 239.693235 110.002464 237.73169 112.012709 235.6998 113.5116 C 233.689555 115.02943 231.676604 115.789698 229.666359 115.789698 C 229.268639 115.789698 228.841157 115.75182 228.38662 115.676063 C 223.167558 114.669588 219.942508 107.678372 218.708764 94.699709 C 217.380324 96.482686 215.843556 98.484814 214.098457 100.703389 C 212.353359 102.924669 210.502743 105.116188 208.546609 107.277946 C 208.243584 107.602616 207.740346 108.095031 207.039601 108.757898 C 206.336151 109.404531 205.521772 109.926708 204.591052 110.324428 C 203.660333 110.703209 202.73232 110.665331 201.8016 110.210794 C 199.942868 109.507343 199.050027 107.488981 199.125783 104.147591 C 199.125783 102.194163 199.496447 99.783492 200.237776 96.918284 C 200.95746 94.034137 202.001813 91.141873 203.368131 88.238787 C 204.734448 85.316761 206.328034 82.724816 208.148889 80.468364 C 209.969744 78.209205 212.00975 76.691375 214.268909 75.914874 C 215.673104 75.381875 217.380324 75.298002 219.39057 75.657844 C 221.42246 75.998747 223.519283 77.451643 225.681041 80.013826 C 226.081467 80.468364 226.260035 81.009479 226.222157 81.634468 C 226.184279 82.262162 225.927249 82.762695 225.453772 83.144181 C 224.999235 83.541901 224.458119 83.723175 223.830425 83.685297 C 223.205436 83.647419 222.702198 83.390389 222.323417 82.916913 C 220.445746 80.752449 218.822398 79.727035 217.456081 79.840669 C 216.108702 79.957009 214.969654 80.362846 214.04164 81.066297 C 212.33442 82.300041 210.776006 84.083017 209.371811 86.415226 C 207.967615 88.750141 206.80151 91.19869 205.873497 93.760873 C 204.942778 96.320351 204.277205 98.712083 203.879485 100.933363 C 203.500704 103.151938 203.38707 104.764463 203.538582 105.770939 C 203.78479 105.619426 204.04182 105.430036 204.306967 105.202767 C 204.572113 104.953854 204.867021 104.642712 205.188985 104.261226 C 207.504961 101.701748 209.628841 99.158503 211.56333 96.634198 C 213.519463 94.090954 215.196922 91.85344 216.601118 89.916246 C 216.982604 89.367013 217.342446 88.844836 217.683349 88.352421 C 218.043191 87.838361 218.3868 87.394646 218.708764 87.013159 C 219.314813 86.236658 220.131898 85.998567 221.157313 86.301592 C 222.161083 86.531566 222.702198 87.194433 222.777955 88.295604 C 223.005223 93.341509 223.413766 97.402583 224.003582 100.47612 C 224.590693 103.530719 225.23462 105.816933 225.938071 107.334763 C 226.638816 108.855299 227.293566 109.88883 227.902321 110.438062 C 228.52731 110.990001 228.99267 111.263264 229.295695 111.263264 C 230.775646 111.566289 233.148439 110.048459 236.411367 106.709775 C 239.674296 103.37109 243.489162 97.194253 247.853261 88.181969 C 248.156286 87.554275 248.602706 87.148438 249.192523 86.956342 C 249.779633 86.748012 250.339688 86.80483 250.869982 87.126794 Z M 296.572623 86.531566 C 297.121855 86.85353 297.511459 87.308067 297.738727 87.897884 C 297.965996 88.466055 297.928118 89.02611 297.625093 89.575343 C 296.145141 92.762515 294.332403 96.33929 292.189585 100.305669 C 290.062999 104.253109 287.795724 108.227604 285.385053 112.231861 C 282.977088 116.236118 280.528539 119.88865 278.042112 123.189456 C 275.55839 126.490263 273.147719 129.176903 270.812805 131.243965 C 268.480596 133.311028 266.383772 134.347264 264.522333 134.347264 C 263.973101 134.347264 263.461746 134.222808 262.985565 133.9766 C 261.3541 133.37055 260.282691 131.898715 259.771337 129.563801 C 259.276216 127.231591 259.343855 123.882085 259.968844 119.517986 C 261.051076 111.679923 263.9244 100.570816 268.59423 86.187958 C 268.518474 86.187958 268.461657 86.206897 268.423778 86.244775 C 268.3859 86.282653 268.326378 86.301592 268.250621 86.301592 C 266.694913 87.383824 264.828064 88.51205 262.644662 89.688977 C 260.482904 90.846965 258.234568 91.626171 255.899653 92.023892 C 253.564738 92.402673 251.346164 91.891318 249.238518 90.487123 C 246.297553 88.398416 244.790546 85.495329 244.714789 81.777864 C 244.620094 78.038754 246.013467 73.950624 248.897615 69.510768 C 249.828334 68.106573 251.051255 66.550865 252.569085 64.843645 C 254.086915 63.133719 255.680501 61.816102 257.349843 60.885383 C 259.021891 59.957369 260.520782 59.919491 261.849221 60.771748 C 262.531027 61.150529 263.042382 61.816102 263.38599 62.76576 C 263.745832 63.693774 263.726893 65.135847 263.329173 67.091981 C 262.947686 69.02647 262.019673 71.626531 260.539721 74.88946 C 259.078708 78.152388 256.86825 82.383913 253.908347 87.584036 C 255.691324 87.811305 257.693452 87.308067 259.912027 86.074323 C 262.133307 84.82164 264.097558 83.655536 265.804778 82.573304 C 267.436242 81.493778 268.791737 80.695632 269.873969 80.184278 C 270.975139 79.670218 271.989732 79.764913 272.920451 80.468364 C 273.772708 81.169109 274.116317 82.032188 273.94316 83.057603 C 273.791647 84.064078 273.640135 84.832463 273.488622 85.362756 C 270.926439 93.447026 268.94325 100.173096 267.539054 105.54367 C 266.153798 110.8926 265.206845 115.199882 264.692785 118.465515 C 264.181431 121.747383 263.9244 124.204049 263.9244 125.835513 C 263.9244 127.466977 264.04074 128.530269 264.268009 129.02539 C 264.514217 129.536745 264.635968 129.831653 264.635968 129.907409 C 265.566687 130.058922 267.482237 128.560031 270.385323 125.410737 C 273.307349 122.258737 276.789429 117.526679 280.831564 111.206447 C 284.873699 104.869981 289.113341 97.031918 293.553196 87.697671 C 293.858927 87.069976 294.294525 86.66414 294.862697 86.474749 C 295.452513 86.282653 296.020684 86.301592 296.572623 86.531566 Z M 249.582126 78.617747 C 249.124883 80.249212 248.99231 81.588473 249.1817 82.630121 C 249.371091 83.674475 249.665999 84.510499 250.063719 85.135487 C 252.550146 80.790327 254.427818 77.262252 255.69944 74.548557 C 256.990001 71.815922 257.863903 69.708276 258.318441 68.228324 C 258.791917 66.748372 259.067886 65.706724 259.143642 65.097969 C 258.291385 65.555212 257.21727 66.445347 255.926709 67.773787 C 254.657792 69.083287 253.413226 70.676873 252.198421 72.554545 C 251.005261 74.415983 250.131359 76.437051 249.582126 78.617747 Z M 342.148101 86.758835 C 342.621578 87.080799 342.935425 87.554275 343.086937 88.181969 C 343.23845 88.788019 343.162693 89.329135 342.859669 89.802611 C 340.922474 92.992489 338.417108 96.331173 335.34357 99.82137 C 332.270032 103.314273 328.977343 106.59614 325.468207 109.669678 C 321.97801 112.743216 318.485107 115.248582 314.99491 117.183071 C 311.502008 119.139205 308.352714 120.115919 305.544323 120.115919 C 304.919334 120.115919 304.34034 120.078041 303.807341 120.002284 C 302.557363 119.756077 301.228924 119.071565 299.824729 117.951455 C 298.439472 116.834051 297.470875 114.831923 296.921642 111.947776 C 296.77013 111.168569 296.95952 110.475941 297.489814 109.869891 C 298.039046 109.242197 298.904832 108.416995 300.079053 107.394286 C 301.009772 106.615079 302.035187 105.68436 303.155296 104.604834 C 304.29164 103.522602 305.365754 102.356498 306.369524 101.103815 C 307.925232 99.015108 308.931708 97.099558 309.386245 95.354459 C 309.862427 93.587716 310.022056 92.356678 309.870544 91.653227 C 309.472823 91.823679 308.6855 92.413495 307.508573 93.417265 C 306.350585 94.42374 304.8057 96.444808 302.868505 99.480467 C 300.536296 102.970664 298.458411 106.880226 296.637557 111.206447 C 294.813996 115.513729 293.125715 119.915706 291.570007 124.412378 C 290.014299 128.92799 288.610104 133.246094 287.35742 137.363985 L 286.789249 138.984627 C 286.464579 140.010041 285.763834 140.521396 284.681603 140.521396 C 284.53009 140.521396 284.416456 140.521396 284.3407 140.521396 C 283.012261 140.275188 282.387272 139.498687 282.463028 138.189187 C 282.463028 137.561492 282.755231 135.789338 283.345047 132.867313 C 283.932157 129.964226 284.711364 126.235938 285.677256 121.679743 C 286.645853 117.145193 287.736202 112.099288 288.951007 106.539323 C 290.146872 100.979358 291.418495 95.267881 292.765873 89.404891 C 294.13219 83.522962 295.46063 77.76549 296.751191 72.129769 C 298.039046 66.494048 299.226796 61.312864 300.309027 56.588923 C 300.384783 56.418472 300.422662 56.218259 300.422662 55.99099 C 301.826857 50.165878 302.917205 45.620506 303.693707 42.357577 C 305.479389 35.204026 307.451756 28.697109 309.616219 22.831414 C 311.796916 16.968424 313.961379 12.274244 316.104198 8.743464 C 318.247016 5.196449 320.173388 3.221377 321.880609 2.823657 C 323.114353 2.596388 324.120828 3.023869 324.900035 4.103395 C 325.9985 5.586053 325.903805 8.773225 324.613244 13.667617 C 323.325388 18.564715 320.971534 24.787547 317.557094 32.338818 C 314.139947 39.87115 309.870544 48.296323 304.748882 57.614337 C 303.571956 62.432974 302.319272 67.698031 300.990833 73.409508 C 299.681333 79.120985 298.363716 84.935275 297.035277 90.857787 C 295.725776 96.758655 294.483916 102.394376 293.306989 107.762245 C 294.159246 105.884573 295.071026 104.033957 296.039624 102.213102 C 297.024454 100.392248 298.020107 98.663383 299.026583 97.031918 C 303.447499 90.184098 307.251543 86.880586 310.441421 87.126794 C 312.072885 87.281012 313.201111 88.133269 313.8261 89.688977 C 314.605307 91.320441 314.605307 93.474082 313.8261 96.1499 C 313.049599 98.825717 311.729276 101.414956 309.870544 103.920323 C 308.769373 105.305579 307.595152 106.585318 306.342468 107.762245 C 305.108724 108.920233 303.988615 109.926708 302.982139 110.778965 C 302.754871 111.00894 302.500546 111.244325 302.213755 111.490533 C 301.948608 111.720507 301.740279 111.909897 301.588766 112.06141 C 301.891791 113.389849 302.357151 114.279985 302.982139 114.737228 C 303.609834 115.210704 304.150949 115.486673 304.605487 115.562429 C 306.331646 115.865454 308.609744 115.33516 311.437074 113.968843 C 314.283343 112.621465 317.356881 110.627453 320.657687 107.989513 C 323.958494 105.354279 327.243066 102.269919 330.505995 98.741844 C 333.768923 95.192125 336.607075 91.434075 339.015041 87.470402 C 339.320771 86.918464 339.783425 86.588383 340.41112 86.474749 C 341.036108 86.358409 341.615102 86.45581 342.148101 86.758835 Z M 320.941773 9.371158 C 319.613334 11.305647 317.841179 14.739027 315.619899 19.674003 C 313.420263 24.606273 311.228744 31.313404 309.045342 39.795394 C 312.935965 31.941098 315.79035 25.488292 317.613911 20.442387 C 319.434765 15.393777 320.544053 11.703367 320.941773 9.371158 Z M 386.216573 87.126794 C 386.768511 87.356768 387.139175 87.762605 387.328566 88.352421 C 387.517956 88.920592 387.499017 89.480647 387.271748 90.032585 C 385.791797 93.068245 384.176566 96.103905 382.431467 99.139564 C 380.686369 102.156285 378.854692 104.934915 376.939142 107.478159 C 375.042531 110.002464 373.078281 112.012709 371.046391 113.5116 C 369.036146 115.02943 367.0259 115.789698 365.01295 115.789698 C 364.61523 115.789698 364.187748 115.75182 363.733211 115.676063 C 358.514149 114.669588 355.289099 107.678372 354.055355 94.699709 C 352.726915 96.482686 351.190146 98.484814 349.445048 100.703389 C 347.69995 102.924669 345.849333 105.116188 343.895905 107.277946 C 343.590175 107.602616 343.089643 108.095031 342.386192 108.757898 C 341.685447 109.404531 340.868362 109.926708 339.937643 110.324428 C 339.00963 110.703209 338.07891 110.665331 337.148191 110.210794 C 335.289459 109.507343 334.399323 107.488981 334.475079 104.147591 C 334.475079 102.194163 334.843038 99.783492 335.584367 96.918284 C 336.304051 94.034137 337.348404 91.141873 338.714722 88.238787 C 340.081039 85.316761 341.674625 82.724816 343.49548 80.468364 C 345.31904 78.209205 347.356341 76.691375 349.615499 75.914874 C 351.019695 75.381875 352.726915 75.298002 354.739866 75.657844 C 356.76905 75.998747 358.865874 77.451643 361.027632 80.013826 C 361.428057 80.468364 361.606626 81.009479 361.568748 81.634468 C 361.530869 82.262162 361.276545 82.762695 360.800363 83.144181 C 360.345826 83.541901 359.80471 83.723175 359.179721 83.685297 C 358.552027 83.647419 358.048789 83.390389 357.670008 82.916913 C 355.792336 80.752449 354.168989 79.727035 352.802672 79.840669 C 351.455293 79.957009 350.31895 80.362846 349.388231 81.066297 C 347.68101 82.300041 346.125303 84.083017 344.721107 86.415226 C 343.316911 88.750141 342.148101 91.19869 341.220088 93.760873 C 340.289369 96.320351 339.626502 98.712083 339.226076 100.933363 C 338.847295 103.151938 338.733661 104.764463 338.885173 105.770939 C 339.131381 105.619426 339.388411 105.430036 339.653557 105.202767 C 339.918704 104.953854 340.213612 104.642712 340.535576 104.261226 C 342.851552 101.701748 344.975431 99.158503 346.912626 96.634198 C 348.866054 94.090954 350.546219 91.85344 351.950414 89.916246 C 352.329195 89.367013 352.689037 88.844836 353.02994 88.352421 C 353.392488 87.838361 353.733391 87.394646 354.055355 87.013159 C 354.66411 86.236658 355.478489 85.998567 356.503904 86.301592 C 357.510379 86.531566 358.048789 87.194433 358.124545 88.295604 C 358.35452 93.341509 358.760357 97.402583 359.350173 100.47612 C 359.937283 103.530719 360.583917 105.816933 361.284662 107.334763 C 361.988112 108.855299 362.642862 109.88883 363.248912 110.438062 C 363.873901 110.990001 364.339261 111.263264 364.642285 111.263264 C 366.122237 111.566289 368.49503 110.048459 371.757958 106.709775 C 375.023592 103.37109 378.835753 97.194253 383.199852 88.181969 C 383.505582 87.554275 383.949297 87.148438 384.539114 86.956342 C 385.126224 86.748012 385.686279 86.80483 386.216573 87.126794 Z M 429.954963 86.872469 C 430.485257 87.194433 430.828865 87.667909 430.980378 88.295604 C 431.150829 88.901653 431.037195 89.442769 430.636769 89.916246 C 427.373841 95.28682 423.645553 99.972883 419.451905 103.97714 C 415.258258 107.981397 410.961798 111.414776 406.559821 114.279985 C 402.176783 117.164132 397.964197 119.555864 393.922062 121.452475 C 389.879927 123.351791 386.341029 124.812804 383.30537 125.835513 C 382.223138 126.216999 381.370881 125.903152 380.743186 124.896677 C 379.490503 128.008093 378.400155 131.073514 377.472141 134.090234 C 377.166411 135.115649 376.427788 135.627003 375.250861 135.627003 C 375.175105 135.627003 375.06147 135.627003 374.909958 135.627003 C 373.676214 135.380795 373.059342 134.639467 373.059342 133.408428 C 373.059342 132.704978 373.335311 130.986935 373.884543 128.2543 C 374.414837 125.54331 375.126404 122.069347 376.019245 117.837821 C 376.912086 113.606295 377.945617 108.912116 379.122544 103.749871 C 380.280532 98.568687 381.473693 93.219758 382.707437 87.697671 C 383.96012 82.175584 385.183041 76.759015 386.378907 71.445257 C 387.593712 66.112561 388.740878 61.19923 389.823109 56.702557 C 389.823109 56.45635 389.87181 56.218259 389.966505 55.99099 C 391.276005 50.393147 392.355531 45.885652 393.210494 42.471212 C 394.993471 35.317661 396.97666 28.810743 399.160063 22.947753 C 401.340759 17.082058 403.4944 12.368939 405.620985 8.800281 C 407.763804 5.215388 409.652298 3.259255 411.283762 2.937291 C 412.612202 2.710022 413.626794 3.099626 414.330244 4.103395 C 415.40977 5.661809 415.306958 8.886859 414.016397 13.781252 C 412.744775 18.67835 410.40986 24.882242 407.014359 32.395635 C 403.637796 39.890089 399.387331 48.296323 394.262965 57.614337 C 393.029221 62.830694 391.711604 68.477237 390.307408 74.548557 C 388.903213 80.600937 387.517956 86.702018 386.151639 92.849093 C 384.80426 98.97723 383.54346 104.688707 382.366534 109.983525 C 384.54723 105.467914 386.654876 101.80456 388.684061 98.996169 C 394.739146 90.533118 399.54696 86.842708 403.115619 87.924939 C 403.816364 88.171147 404.576632 88.704146 405.391011 89.518525 C 406.208096 90.33561 406.654517 91.861557 406.730273 94.101776 C 406.824968 96.433985 406.245974 99.393889 404.993291 102.981487 C 403.740608 106.54744 401.833175 110.07822 399.273697 113.568417 C 405.098809 110.153977 410.382804 106.236298 415.125684 101.815382 C 419.868564 97.375527 423.797065 92.629941 426.908481 87.584036 C 427.214212 87.032098 427.657927 86.702018 428.247743 86.588383 C 428.834853 86.474749 429.405731 86.569444 429.954963 86.872469 Z M 410.458561 9.371158 C 409.14906 11.381403 407.385023 14.852661 405.163742 19.787637 C 402.945168 24.719908 400.753649 31.38916 398.589185 39.795394 C 402.460869 31.941098 405.307138 25.507231 407.127993 20.499204 C 408.967787 15.488472 410.07978 11.779123 410.458561 9.371158 Z M 382.025631 121.509292 C 385.989304 120.02934 389.368572 117.848643 392.158024 114.964496 C 394.966415 112.099288 397.166051 109.071745 398.759637 105.884573 C 400.353223 102.697401 401.378637 99.897127 401.833175 97.489161 C 402.2336 95.779235 402.347235 94.518435 402.176783 93.704056 C 402.025271 92.886971 401.908931 92.402673 401.833175 92.25116 C 401.681662 92.25116 401.256886 92.432434 400.553436 92.792276 C 399.852691 93.133179 398.835393 93.950264 397.506954 95.240825 C 396.200159 96.509742 394.501056 98.625504 392.412349 101.588113 C 390.780884 103.901384 389.046608 106.796353 387.204109 110.267611 C 385.383254 113.71993 383.657095 117.469862 382.025631 121.509292 Z M 458.845136 3.762493 C 459.851611 5.242444 459.87055 8.240226 458.901953 12.755837 C 457.936061 17.255215 455.933933 22.823297 452.898273 29.465493 C 449.878847 36.104984 445.839418 43.466865 440.771868 51.551135 C 440.696112 51.64583 440.620356 51.729703 440.544599 51.808165 C 438.534354 60.041242 436.532226 68.439359 434.538214 76.9944 C 432.565847 85.533207 430.677353 93.920502 428.875437 102.156285 C 427.09246 110.392068 425.469113 118.140846 424.0081 125.410737 C 422.528149 132.677922 421.267349 139.146961 420.222995 144.820561 C 419.159703 150.49416 418.402141 155.039533 417.944898 158.453973 C 418.020654 158.453973 418.09641 158.453973 418.174872 158.453973 C 418.780922 158.700181 419.227342 159.089785 419.511428 159.620078 C 419.776575 160.172016 419.795514 160.759127 419.568245 161.384116 C 419.019013 162.864067 418.458958 164.203329 417.888081 165.399195 C 417.30097 166.614 416.502824 167.220049 415.499054 167.220049 C 415.250141 167.220049 414.976878 167.182171 414.673853 167.106415 C 413.970402 166.860207 413.467165 166.365087 413.16414 165.626463 C 412.842176 164.885135 412.804298 163.405183 413.050505 161.186608 C 413.277774 158.984267 413.781012 155.588765 414.560218 150.997398 C 415.942769 142.610103 418.039593 131.652508 420.847984 118.121907 C 422.860935 108.655086 424.976698 99.006991 427.195272 89.177622 C 429.416553 79.329315 431.608072 69.843555 433.76983 60.714931 C 435.953232 51.589013 438.058172 43.288297 440.090062 35.810076 C 440.468843 34.349063 441.047837 32.30094 441.824338 29.663001 C 442.603545 27.006122 443.496386 24.170675 444.500156 21.153955 C 445.52557 18.118295 446.653797 15.204386 447.887541 12.414934 C 449.140224 9.606543 450.419963 7.293273 451.729463 5.469713 C 453.057902 3.629919 454.386342 2.596388 455.714781 2.369119 C 457.024281 2.141851 458.068635 2.604505 458.845136 3.762493 Z M 444.643552 36.18074 C 448.361017 29.178702 450.980018 23.35359 452.497848 18.705406 C 454.015677 14.038282 454.889579 10.650897 455.116848 8.545956 C 454.034616 10.101664 452.554665 13.042629 450.676993 17.368849 C 448.81826 21.676131 446.805309 27.944958 444.643552 36.18074 Z M 481.68834 87.013159 C 482.237572 87.31889 482.551419 87.781544 482.627176 88.409238 C 482.702932 89.034227 482.589298 89.575343 482.286273 90.032585 C 477.694905 96.40693 473.490435 101.671986 469.678274 105.827756 C 465.882347 109.983525 462.078303 113.427727 458.263436 116.160362 C 455.398228 118.170607 452.562781 119.177083 449.75439 119.177083 C 447.570988 119.177083 445.666261 118.598089 444.034796 117.440101 C 442.952565 116.660894 441.889272 115.275638 440.844919 113.284332 C 439.803271 111.311964 439.243216 108.435934 439.16746 104.661651 C 439.072764 100.884663 440.000778 95.933453 441.956912 89.802611 C 441.956912 89.802611 441.956912 89.764733 441.956912 89.688977 C 444.289121 82.232401 447.021756 76.539863 450.152111 72.611362 C 453.301405 68.685567 456.006984 66.683438 458.263436 66.607682 C 460.049119 66.531926 461.215223 67.308427 461.764456 68.939891 C 462.619419 71.180111 461.604827 74.386222 458.720679 78.56093 C 455.855471 82.7167 451.623946 87.126794 446.026103 91.796623 C 444.318882 97.221309 443.501797 101.471774 443.577554 104.548017 C 443.65331 107.621555 444.080791 109.840129 444.859998 111.206447 C 445.636499 112.553825 446.264193 113.427727 446.73767 113.825447 C 449.072585 115.532668 452.059544 115.067308 455.703959 112.432074 C 459.269912 109.926708 462.876449 106.682719 466.518158 102.697401 C 470.181512 98.693144 474.193886 93.617478 478.557985 87.470402 C 478.936766 86.99422 479.440004 86.702018 480.064992 86.588383 C 480.692687 86.474749 481.233802 86.615439 481.68834 87.013159 Z M 457.438235 71.502075 C 456.585977 72.035074 455.417167 73.182239 453.937216 74.946277 C 452.476203 76.691375 450.969195 79.23462 449.413487 82.573304 C 452.202939 79.859608 454.175307 77.554455 455.333294 75.657844 C 456.510221 73.742294 457.210966 72.357038 457.438235 71.502075 Z M 457.438235 71.502075 " stroke="#ffffff" stroke-width="5.100637" stroke-opacity="1" stroke-miterlimit="4"></path><g fill="#fe4d00" fill-opacity="1"><g transform="translate(18.081197, 205.855114)"><g><path d="M 169.828125 40.734375 C 170.503906 41.296875 170.867188 42.023438 170.921875 42.921875 C 170.972656 43.816406 170.71875 44.65625 170.15625 45.4375 C 164.21875 52.738281 157.9375 56.390625 151.3125 56.390625 C 151.082031 56.390625 150.859375 56.390625 150.640625 56.390625 C 145.816406 56.273438 141.101562 54.363281 136.5 50.65625 C 131.894531 46.957031 127.265625 42.132812 122.609375 36.1875 C 117.953125 30.238281 113.15625 23.726562 108.21875 16.65625 C 103.0625 9.476562 97.617188 2.160156 91.890625 -5.296875 C 86.171875 -12.765625 80.113281 -19.300781 73.71875 -24.90625 C 66.875 -23.226562 60.140625 -22.441406 53.515625 -22.546875 C 50.941406 -12.003906 48.390625 -1.429688 45.859375 9.171875 C 43.335938 19.773438 40.984375 29.875 38.796875 39.46875 C 36.609375 49.0625 34.726562 57.703125 33.15625 65.390625 C 31.582031 73.078125 30.460938 79.332031 29.796875 84.15625 C 30.128906 83.375 30.519531 82.476562 30.96875 81.46875 C 31.300781 80.675781 31.890625 80.113281 32.734375 79.78125 C 33.578125 79.445312 34.390625 79.445312 35.171875 79.78125 C 36.078125 80.226562 36.664062 80.875 36.9375 81.71875 C 37.21875 82.5625 37.191406 83.375 36.859375 84.15625 C 34.722656 88.863281 32.925781 92.367188 31.46875 94.671875 C 30.007812 96.972656 28.5 98.125 26.9375 98.125 C 26.476562 98.125 26.023438 98.015625 25.578125 97.796875 C 24.679688 97.453125 23.976562 96.800781 23.46875 95.84375 C 22.96875 94.894531 22.742188 93.101562 22.796875 90.46875 C 22.859375 87.832031 23.3125 83.90625 24.15625 78.6875 C 25 73.46875 26.34375 66.484375 28.1875 57.734375 C 30.039062 48.984375 32.484375 38.015625 35.515625 24.828125 C 38.546875 11.640625 42.359375 -4.320312 46.953125 -23.0625 C 40.785156 -23.726562 36.101562 -25.269531 32.90625 -27.6875 C 29.707031 -30.101562 27.71875 -32.597656 26.9375 -35.171875 C 25.582031 -39.097656 26.585938 -42.351562 29.953125 -44.9375 C 32.316406 -46.84375 35.429688 -47.796875 39.296875 -47.796875 C 43.171875 -47.796875 47.519531 -46.957031 52.34375 -45.28125 C 53.019531 -48.082031 53.722656 -50.910156 54.453125 -53.765625 C 55.179688 -56.628906 55.878906 -59.578125 56.546875 -62.609375 C 59.128906 -72.710938 61.570312 -82.472656 63.875 -91.890625 C 66.175781 -101.316406 68.28125 -110.039062 70.1875 -118.0625 C 72.09375 -126.09375 73.664062 -132.96875 74.90625 -138.6875 C 75.125 -139.582031 75.597656 -140.28125 76.328125 -140.78125 C 77.054688 -141.289062 77.867188 -141.4375 78.765625 -141.21875 C 79.660156 -140.988281 80.332031 -140.507812 80.78125 -139.78125 C 81.238281 -139.050781 81.410156 -138.238281 81.296875 -137.34375 C 79.953125 -131.625 78.320312 -124.75 76.40625 -116.71875 C 74.5 -108.695312 72.394531 -99.945312 70.09375 -90.46875 C 67.800781 -80.988281 65.421875 -71.195312 62.953125 -61.09375 C 62.160156 -58.175781 61.398438 -55.175781 60.671875 -52.09375 C 59.941406 -49.007812 59.1875 -45.835938 58.40625 -42.578125 C 61.207031 -41.234375 64.066406 -39.71875 66.984375 -38.03125 C 69.679688 -36.351562 72.429688 -34.390625 75.234375 -32.140625 C 82.753906 -34.273438 90.46875 -37.613281 98.375 -42.15625 C 106.289062 -46.707031 114.035156 -52.6875 121.609375 -60.09375 C 129.179688 -67.5 136.164062 -76.640625 142.5625 -87.515625 C 147.382812 -95.597656 150.972656 -103.507812 153.328125 -111.25 C 155.691406 -119 156.757812 -126.15625 156.53125 -132.71875 C 156.300781 -139.28125 154.785156 -144.863281 151.984375 -149.46875 C 145.585938 -159.5625 133.414062 -163.992188 115.46875 -162.765625 C 106.375 -162.085938 97.085938 -160.203125 87.609375 -157.109375 C 78.128906 -154.023438 69.007812 -149.988281 60.25 -145 C 51.5 -140.007812 43.671875 -134.457031 36.765625 -128.34375 C 29.867188 -122.226562 24.570312 -115.859375 20.875 -109.234375 C 13.6875 -96.671875 12.957031 -84.722656 18.6875 -73.390625 C 19.019531 -72.597656 19.046875 -71.78125 18.765625 -70.9375 C 18.484375 -70.101562 17.953125 -69.460938 17.171875 -69.015625 C 16.378906 -68.671875 15.5625 -68.640625 14.71875 -68.921875 C 13.882812 -69.203125 13.242188 -69.734375 12.796875 -70.515625 C 6.054688 -83.984375 6.835938 -97.957031 15.140625 -112.4375 C 19.179688 -119.613281 24.820312 -126.457031 32.0625 -132.96875 C 39.300781 -139.476562 47.492188 -145.335938 56.640625 -150.546875 C 65.785156 -155.765625 75.378906 -160 85.421875 -163.25 C 95.460938 -166.507812 105.363281 -168.535156 115.125 -169.328125 C 123.539062 -169.878906 130.582031 -169.34375 136.25 -167.71875 C 141.914062 -166.09375 146.429688 -163.90625 149.796875 -161.15625 C 153.160156 -158.40625 155.6875 -155.628906 157.375 -152.828125 C 160.738281 -147.554688 162.585938 -141.242188 162.921875 -133.890625 C 163.265625 -126.546875 162.203125 -118.632812 159.734375 -110.15625 C 157.265625 -101.6875 153.390625 -93.019531 148.109375 -84.15625 C 143.066406 -75.519531 137.035156 -67.410156 130.015625 -59.828125 C 123.003906 -52.253906 115.515625 -45.773438 107.546875 -40.390625 C 99.023438 -34.441406 90.21875 -29.957031 81.125 -26.9375 C 87.1875 -21.207031 92.878906 -14.835938 98.203125 -7.828125 C 103.535156 -0.816406 108.613281 6.109375 113.4375 12.953125 C 117.925781 19.242188 122.300781 25.191406 126.5625 30.796875 C 130.832031 36.410156 134.984375 40.984375 139.015625 44.515625 C 143.054688 48.054688 146.988281 49.878906 150.8125 49.984375 C 155.519531 50.097656 160.34375 47.179688 165.28125 41.234375 C 165.84375 40.566406 166.546875 40.175781 167.390625 40.0625 C 168.234375 39.945312 169.046875 40.171875 169.828125 40.734375 Z M 32.984375 -37.03125 C 33.546875 -35.457031 35.117188 -33.910156 37.703125 -32.390625 C 40.285156 -30.878906 43.875 -29.84375 48.46875 -29.28125 C 49.257812 -32.3125 50.046875 -35.457031 50.828125 -38.71875 C 48.804688 -39.5 46.8125 -40.140625 44.84375 -40.640625 C 42.882812 -41.148438 41.066406 -41.40625 39.390625 -41.40625 C 37.023438 -41.40625 35.171875 -40.898438 33.828125 -39.890625 C 32.929688 -39.109375 32.648438 -38.15625 32.984375 -37.03125 Z M 55.03125 -29.125 C 58.957031 -29.125 62.941406 -29.515625 66.984375 -30.296875 C 65.867188 -31.078125 64.75 -31.804688 63.625 -32.484375 C 62.613281 -33.046875 61.546875 -33.632812 60.421875 -34.25 C 59.296875 -34.863281 58.0625 -35.507812 56.71875 -36.1875 C 56.5 -34.945312 56.25 -33.738281 55.96875 -32.5625 C 55.6875 -31.382812 55.375 -30.238281 55.03125 -29.125 Z M 55.03125 -29.125 "></path></g></g></g><g fill="#fe4d00" fill-opacity="1"><g transform="translate(173.09717, 205.855114)"><g><path d="M 56.890625 -37.53125 C 57.671875 -37.082031 58.117188 -36.410156 58.234375 -35.515625 C 58.347656 -34.617188 58.179688 -33.832031 57.734375 -33.15625 C 51.109375 -23.957031 45.046875 -16.351562 39.546875 -10.34375 C 34.054688 -4.34375 28.5625 0.617188 23.0625 4.546875 C 18.90625 7.460938 14.804688 8.921875 10.765625 8.921875 C 7.628906 8.921875 4.882812 8.078125 2.53125 6.390625 C 0.957031 5.273438 -0.582031 3.285156 -2.09375 0.421875 C -3.613281 -2.441406 -4.429688 -6.59375 -4.546875 -12.03125 C -4.660156 -17.476562 -3.3125 -24.632812 -0.5 -33.5 C -0.5 -33.5 -0.5 -33.550781 -0.5 -33.65625 C 2.863281 -44.4375 6.816406 -52.65625 11.359375 -58.3125 C 15.898438 -63.976562 19.800781 -66.867188 23.0625 -66.984375 C 25.644531 -67.097656 27.328125 -65.976562 28.109375 -63.625 C 29.335938 -60.363281 27.875 -55.734375 23.71875 -49.734375 C 19.570312 -43.734375 13.460938 -37.367188 5.390625 -30.640625 C 2.921875 -22.773438 1.738281 -16.625 1.84375 -12.1875 C 1.957031 -7.757812 2.578125 -4.5625 3.703125 -2.59375 C 4.828125 -0.632812 5.722656 0.617188 6.390625 1.171875 C 9.753906 3.640625 14.078125 2.96875 19.359375 -0.84375 C 24.515625 -4.4375 29.726562 -9.117188 35 -14.890625 C 40.28125 -20.671875 46.0625 -27.992188 52.34375 -36.859375 C 52.90625 -37.535156 53.632812 -37.957031 54.53125 -38.125 C 55.425781 -38.289062 56.210938 -38.09375 56.890625 -37.53125 Z M 21.875 -59.921875 C 20.644531 -59.128906 18.960938 -57.472656 16.828125 -54.953125 C 14.703125 -52.429688 12.515625 -48.753906 10.265625 -43.921875 C 14.304688 -47.859375 17.164062 -51.195312 18.84375 -53.9375 C 20.53125 -56.6875 21.539062 -58.679688 21.875 -59.921875 Z M 21.875 -59.921875 "></path></g></g></g><g fill="#fe4d00" fill-opacity="1"><g transform="translate(222.076151, 205.855114)"><g><path d="M 94.921875 -37.703125 C 95.597656 -37.140625 95.960938 -36.410156 96.015625 -35.515625 C 96.078125 -34.617188 95.828125 -33.832031 95.265625 -33.15625 C 81.015625 -16.4375 69.738281 -9.648438 61.4375 -12.796875 C 55.488281 -15.035156 52.289062 -22.160156 51.84375 -34.171875 C 50.601562 -31.921875 49.28125 -29.363281 47.875 -26.5 C 46.476562 -23.644531 45.332031 -21.320312 44.4375 -19.53125 C 43.757812 -17.84375 43.082031 -16.320312 42.40625 -14.96875 C 41.738281 -13.625 41.125 -12.503906 40.5625 -11.609375 C 40.226562 -10.941406 39.640625 -9.960938 38.796875 -8.671875 C 37.953125 -7.378906 36.882812 -6.253906 35.59375 -5.296875 C 34.300781 -4.347656 32.816406 -4.097656 31.140625 -4.546875 C 29.117188 -5.109375 27.601562 -6.59375 26.59375 -9 C 25.582031 -11.414062 24.960938 -14.050781 24.734375 -16.90625 C 24.515625 -19.769531 24.40625 -22.101562 24.40625 -23.90625 C 24.40625 -25.363281 24.40625 -26.765625 24.40625 -28.109375 C 24.40625 -29.453125 24.460938 -30.6875 24.578125 -31.8125 C 20.648438 -26.195312 16.890625 -20.390625 13.296875 -14.390625 C 9.703125 -8.390625 5.882812 -1.515625 1.84375 6.234375 C 0.5 8.804688 -0.957031 10.09375 -2.53125 10.09375 C -3.082031 10.09375 -3.585938 9.925781 -4.046875 9.59375 C -4.597656 9.363281 -5.097656 9 -5.546875 8.5 C -6.003906 8 -6.257812 6.988281 -6.3125 5.46875 C -6.363281 3.957031 -6.132812 1.628906 -5.625 -1.515625 C -5.125 -4.660156 -4.144531 -9.035156 -2.6875 -14.640625 C -1.007812 -21.484375 0.976562 -28.269531 3.28125 -35 C 5.582031 -41.738281 7.910156 -47.800781 10.265625 -53.1875 C 10.597656 -54.082031 11.1875 -54.695312 12.03125 -55.03125 C 12.875 -55.375 13.6875 -55.320312 14.46875 -54.875 C 15.375 -54.53125 15.960938 -53.9375 16.234375 -53.09375 C 16.515625 -52.257812 16.488281 -51.445312 16.15625 -50.65625 C 13.125 -43.59375 10.398438 -36.21875 7.984375 -28.53125 C 5.578125 -20.84375 3.703125 -14.140625 2.359375 -8.421875 C 5.835938 -14.585938 9.257812 -20.332031 12.625 -25.65625 C 15.988281 -30.988281 19.523438 -36.179688 23.234375 -41.234375 C 23.566406 -41.679688 24.148438 -42.296875 24.984375 -43.078125 C 25.828125 -43.867188 26.976562 -44.039062 28.4375 -43.59375 C 29.90625 -43.03125 30.722656 -41.960938 30.890625 -40.390625 C 31.054688 -38.816406 31.082031 -36.179688 30.96875 -32.484375 C 30.96875 -31.253906 30.9375 -29.90625 30.875 -28.4375 C 30.820312 -26.976562 30.796875 -25.46875 30.796875 -23.90625 C 30.796875 -20.53125 31.019531 -17.773438 31.46875 -15.640625 C 31.914062 -13.515625 32.3125 -12.0625 32.65625 -11.28125 C 32.875 -11.5 33.179688 -11.890625 33.578125 -12.453125 C 33.972656 -13.015625 34.453125 -13.742188 35.015625 -14.640625 C 35.460938 -15.429688 35.992188 -16.5 36.609375 -17.84375 C 37.222656 -19.1875 37.925781 -20.644531 38.71875 -22.21875 C 41.632812 -28.5 44.015625 -33.320312 45.859375 -36.6875 C 47.710938 -40.050781 49.3125 -42.347656 50.65625 -43.578125 C 52.007812 -44.816406 53.414062 -45.269531 54.875 -44.9375 C 56.664062 -44.488281 57.703125 -43.394531 57.984375 -41.65625 C 58.265625 -39.914062 58.40625 -38.539062 58.40625 -37.53125 C 58.289062 -32.257812 58.707031 -27.992188 59.65625 -24.734375 C 60.613281 -21.484375 61.992188 -19.519531 63.796875 -18.84375 C 65.804688 -18.0625 69.023438 -18.960938 73.453125 -21.546875 C 77.890625 -24.128906 83.535156 -29.398438 90.390625 -37.359375 C 90.941406 -38.035156 91.664062 -38.398438 92.5625 -38.453125 C 93.46875 -38.515625 94.253906 -38.265625 94.921875 -37.703125 Z M 94.921875 -37.703125 "></path></g></g></g><g fill="#fe4d00" fill-opacity="1"><g transform="translate(309.767059, 205.855114)"><g><path d="M 70.515625 -37.359375 C 71.304688 -37.023438 71.84375 -36.4375 72.125 -35.59375 C 72.40625 -34.75 72.375 -33.9375 72.03125 -33.15625 C 69.90625 -28.78125 67.578125 -24.40625 65.046875 -20.03125 C 62.523438 -15.65625 59.890625 -11.644531 57.140625 -8 C 54.390625 -4.351562 51.554688 -1.4375 48.640625 0.75 C 45.722656 2.945312 42.804688 4.046875 39.890625 4.046875 C 39.328125 4.046875 38.707031 3.988281 38.03125 3.875 C 30.519531 2.414062 25.863281 -7.679688 24.0625 -26.421875 C 22.15625 -23.835938 19.941406 -20.945312 17.421875 -17.75 C 14.898438 -14.550781 12.234375 -11.382812 9.421875 -8.25 C 8.972656 -7.800781 8.242188 -7.097656 7.234375 -6.140625 C 6.222656 -5.191406 5.046875 -4.4375 3.703125 -3.875 C 2.359375 -3.3125 1.007812 -3.367188 -0.34375 -4.046875 C -3.03125 -5.046875 -4.316406 -7.960938 -4.203125 -12.796875 C -4.203125 -15.597656 -3.671875 -19.070312 -2.609375 -23.21875 C -1.546875 -27.375 -0.0351562 -31.554688 1.921875 -35.765625 C 3.890625 -39.972656 6.191406 -43.703125 8.828125 -46.953125 C 11.472656 -50.210938 14.421875 -52.398438 17.671875 -53.515625 C 19.691406 -54.304688 22.160156 -54.445312 25.078125 -53.9375 C 27.992188 -53.4375 31.023438 -51.332031 34.171875 -47.625 C 34.734375 -46.957031 34.984375 -46.171875 34.921875 -45.265625 C 34.867188 -44.367188 34.503906 -43.644531 33.828125 -43.09375 C 33.160156 -42.53125 32.375 -42.273438 31.46875 -42.328125 C 30.570312 -42.390625 29.84375 -42.753906 29.28125 -43.421875 C 26.59375 -46.566406 24.265625 -48.050781 22.296875 -47.875 C 20.335938 -47.707031 18.6875 -47.125 17.34375 -46.125 C 14.875 -44.320312 12.628906 -41.738281 10.609375 -38.375 C 8.585938 -35.007812 6.898438 -31.472656 5.546875 -27.765625 C 4.203125 -24.066406 3.25 -20.617188 2.6875 -17.421875 C 2.125 -14.222656 1.957031 -11.894531 2.1875 -10.4375 C 2.519531 -10.65625 2.882812 -10.929688 3.28125 -11.265625 C 3.675781 -11.609375 4.097656 -12.0625 4.546875 -12.625 C 7.910156 -16.320312 10.992188 -19.992188 13.796875 -23.640625 C 16.609375 -27.296875 19.023438 -30.523438 21.046875 -33.328125 C 21.597656 -34.109375 22.125 -34.863281 22.625 -35.59375 C 23.132812 -36.320312 23.613281 -36.96875 24.0625 -37.53125 C 24.96875 -38.65625 26.148438 -38.992188 27.609375 -38.546875 C 29.066406 -38.203125 29.847656 -37.25 29.953125 -35.6875 C 30.296875 -28.382812 30.882812 -22.515625 31.71875 -18.078125 C 32.5625 -13.648438 33.488281 -10.34375 34.5 -8.15625 C 35.507812 -5.96875 36.460938 -4.484375 37.359375 -3.703125 C 38.265625 -2.921875 38.941406 -2.53125 39.390625 -2.53125 C 41.515625 -2.070312 44.929688 -4.253906 49.640625 -9.078125 C 54.359375 -13.910156 59.859375 -22.832031 66.140625 -35.84375 C 66.585938 -36.75 67.234375 -37.335938 68.078125 -37.609375 C 68.921875 -37.890625 69.734375 -37.804688 70.515625 -37.359375 Z M 70.515625 -37.359375 "></path></g></g></g><g fill="#fe4d00" fill-opacity="1"><g transform="translate(372.379363, 205.855114)"><g><path d="M 73.890625 -38.203125 C 74.671875 -37.753906 75.226562 -37.109375 75.5625 -36.265625 C 75.90625 -35.429688 75.851562 -34.617188 75.40625 -33.828125 C 73.269531 -29.234375 70.660156 -24.070312 67.578125 -18.34375 C 64.492188 -12.625 61.210938 -6.875 57.734375 -1.09375 C 54.253906 4.6875 50.71875 9.957031 47.125 14.71875 C 43.53125 19.488281 40.050781 23.359375 36.6875 26.328125 C 33.320312 29.304688 30.296875 30.796875 27.609375 30.796875 C 26.816406 30.796875 26.085938 30.628906 25.421875 30.296875 C 23.054688 29.398438 21.507812 27.265625 20.78125 23.890625 C 20.050781 20.523438 20.140625 15.703125 21.046875 9.421875 C 22.609375 -1.910156 26.757812 -17.957031 33.5 -38.71875 C 33.382812 -38.71875 33.296875 -38.6875 33.234375 -38.625 C 33.179688 -38.570312 33.097656 -38.546875 32.984375 -38.546875 C 30.742188 -36.972656 28.050781 -35.34375 24.90625 -33.65625 C 21.769531 -31.976562 18.515625 -30.859375 15.140625 -30.296875 C 11.773438 -29.734375 8.578125 -30.460938 5.546875 -32.484375 C 1.285156 -35.515625 -0.894531 -39.722656 -1 -45.109375 C -1.113281 -50.492188 0.898438 -56.382812 5.046875 -62.78125 C 6.390625 -64.800781 8.15625 -67.046875 10.34375 -69.515625 C 12.539062 -71.984375 14.84375 -73.890625 17.25 -75.234375 C 19.664062 -76.578125 21.828125 -76.632812 23.734375 -75.40625 C 24.742188 -74.84375 25.5 -73.882812 26 -72.53125 C 26.507812 -71.1875 26.484375 -69.113281 25.921875 -66.3125 C 25.359375 -63.507812 24.007812 -59.75 21.875 -55.03125 C 19.75 -50.320312 16.550781 -44.207031 12.28125 -36.6875 C 14.863281 -36.351562 17.753906 -37.082031 20.953125 -38.875 C 24.148438 -40.675781 26.984375 -42.359375 29.453125 -43.921875 C 31.804688 -45.492188 33.769531 -46.644531 35.34375 -47.375 C 36.914062 -48.101562 38.375 -47.960938 39.71875 -46.953125 C 40.957031 -45.941406 41.460938 -44.707031 41.234375 -43.25 C 41.015625 -41.789062 40.789062 -40.671875 40.5625 -39.890625 C 36.863281 -28.222656 34.003906 -18.515625 31.984375 -10.765625 C 29.960938 -3.023438 28.585938 3.195312 27.859375 7.90625 C 27.128906 12.625 26.765625 16.160156 26.765625 18.515625 C 26.765625 20.867188 26.929688 22.410156 27.265625 23.140625 C 27.597656 23.867188 27.765625 24.289062 27.765625 24.40625 C 29.117188 24.625 31.898438 22.460938 36.109375 17.921875 C 40.316406 13.378906 45.335938 6.535156 51.171875 -2.609375 C 57.003906 -11.753906 63.117188 -23.0625 69.515625 -36.53125 C 69.960938 -37.425781 70.609375 -38.015625 71.453125 -38.296875 C 72.296875 -38.578125 73.109375 -38.546875 73.890625 -38.203125 Z M 6.0625 -49.65625 C 5.382812 -47.300781 5.1875 -45.363281 5.46875 -43.84375 C 5.75 -42.332031 6.171875 -41.128906 6.734375 -40.234375 C 10.328125 -46.515625 13.046875 -51.617188 14.890625 -55.546875 C 16.742188 -59.472656 18.003906 -62.5 18.671875 -64.625 C 19.347656 -66.757812 19.742188 -68.273438 19.859375 -69.171875 C 18.628906 -68.503906 17.085938 -67.210938 15.234375 -65.296875 C 13.378906 -63.390625 11.582031 -61.085938 9.84375 -58.390625 C 8.101562 -55.703125 6.84375 -52.789062 6.0625 -49.65625 Z M 6.0625 -49.65625 "></path></g></g></g><g fill="#fe4d00" fill-opacity="1"><g transform="translate(439.536095, 205.855114)"><g><path d="M 72.546875 -37.875 C 73.210938 -37.425781 73.65625 -36.75 73.875 -35.84375 C 74.101562 -34.945312 73.992188 -34.164062 73.546875 -33.5 C 70.742188 -28.894531 67.125 -24.066406 62.6875 -19.015625 C 58.257812 -13.960938 53.519531 -9.222656 48.46875 -4.796875 C 43.425781 -0.367188 38.378906 3.242188 33.328125 6.046875 C 28.273438 8.859375 23.726562 10.265625 19.6875 10.265625 C 18.789062 10.265625 17.953125 10.207031 17.171875 10.09375 C 15.367188 9.757812 13.457031 8.78125 11.4375 7.15625 C 9.425781 5.53125 8.023438 2.640625 7.234375 -1.515625 C 7.015625 -2.640625 7.296875 -3.648438 8.078125 -4.546875 C 8.859375 -5.441406 10.09375 -6.617188 11.78125 -8.078125 C 13.125 -9.203125 14.609375 -10.546875 16.234375 -12.109375 C 17.867188 -13.679688 19.414062 -15.367188 20.875 -17.171875 C 23.113281 -20.203125 24.566406 -22.976562 25.234375 -25.5 C 25.910156 -28.019531 26.140625 -29.785156 25.921875 -30.796875 C 25.359375 -30.578125 24.234375 -29.738281 22.546875 -28.28125 C 20.867188 -26.820312 18.628906 -23.90625 15.828125 -19.53125 C 12.453125 -14.476562 9.445312 -8.835938 6.8125 -2.609375 C 4.175781 3.617188 1.738281 9.984375 -0.5 16.484375 C -2.75 22.992188 -4.769531 29.222656 -6.5625 35.171875 L -7.40625 37.53125 C -7.851562 38.988281 -8.863281 39.71875 -10.4375 39.71875 C -10.65625 39.71875 -10.820312 39.71875 -10.9375 39.71875 C -12.84375 39.382812 -13.742188 38.265625 -13.640625 36.359375 C -13.640625 35.460938 -13.21875 32.910156 -12.375 28.703125 C -11.53125 24.492188 -10.40625 19.101562 -9 12.53125 C -7.601562 5.96875 -6.035156 -1.320312 -4.296875 -9.34375 C -2.554688 -17.363281 -0.707031 -25.609375 1.25 -34.078125 C 3.21875 -42.554688 5.128906 -50.863281 6.984375 -59 C 8.835938 -67.132812 10.550781 -74.625 12.125 -81.46875 C 12.226562 -81.6875 12.28125 -81.96875 12.28125 -82.3125 C 14.300781 -90.71875 15.875 -97.28125 17 -102 C 19.582031 -112.320312 22.441406 -121.71875 25.578125 -130.1875 C 28.722656 -138.65625 31.835938 -145.441406 34.921875 -150.546875 C 38.003906 -155.660156 40.78125 -158.5 43.25 -159.0625 C 45.050781 -159.394531 46.507812 -158.773438 47.625 -157.203125 C 49.195312 -155.066406 49.054688 -150.460938 47.203125 -143.390625 C 45.359375 -136.328125 41.96875 -127.351562 37.03125 -116.46875 C 32.09375 -105.582031 25.921875 -93.410156 18.515625 -79.953125 C 16.828125 -72.992188 15.03125 -65.390625 13.125 -57.140625 C 11.21875 -48.890625 9.3125 -40.5 7.40625 -31.96875 C 5.5 -23.445312 3.703125 -15.316406 2.015625 -7.578125 C 3.253906 -10.265625 4.570312 -12.925781 5.96875 -15.5625 C 7.375 -18.207031 8.804688 -20.707031 10.265625 -23.0625 C 16.660156 -32.9375 22.160156 -37.703125 26.765625 -37.359375 C 29.117188 -37.140625 30.742188 -35.90625 31.640625 -33.65625 C 32.765625 -31.300781 32.765625 -28.1875 31.640625 -24.3125 C 30.515625 -20.445312 28.609375 -16.71875 25.921875 -13.125 C 24.347656 -11.101562 22.660156 -9.25 20.859375 -7.5625 C 19.066406 -5.882812 17.441406 -4.429688 15.984375 -3.203125 C 15.648438 -2.859375 15.285156 -2.519531 14.890625 -2.1875 C 14.503906 -1.851562 14.195312 -1.570312 13.96875 -1.34375 C 14.414062 0.5625 15.085938 1.847656 15.984375 2.515625 C 16.890625 3.191406 17.675781 3.585938 18.34375 3.703125 C 20.8125 4.148438 24.09375 3.390625 28.1875 1.421875 C 32.28125 -0.535156 36.710938 -3.421875 41.484375 -7.234375 C 46.253906 -11.046875 50.992188 -15.503906 55.703125 -20.609375 C 60.421875 -25.722656 64.519531 -31.140625 68 -36.859375 C 68.445312 -37.640625 69.117188 -38.113281 70.015625 -38.28125 C 70.910156 -38.457031 71.753906 -38.320312 72.546875 -37.875 Z M 41.90625 -149.625 C 40 -146.820312 37.445312 -141.859375 34.25 -134.734375 C 31.050781 -127.609375 27.878906 -117.929688 24.734375 -105.703125 C 30.347656 -117.035156 34.472656 -126.347656 37.109375 -133.640625 C 39.742188 -140.929688 41.34375 -146.257812 41.90625 -149.625 Z M 41.90625 -149.625 "></path></g></g></g><g fill="#fe4d00" fill-opacity="1"><g transform="translate(505.178025, 205.855114)"><g><path d="M 70.515625 -37.359375 C 71.304688 -37.023438 71.84375 -36.4375 72.125 -35.59375 C 72.40625 -34.75 72.375 -33.9375 72.03125 -33.15625 C 69.90625 -28.78125 67.578125 -24.40625 65.046875 -20.03125 C 62.523438 -15.65625 59.890625 -11.644531 57.140625 -8 C 54.390625 -4.351562 51.554688 -1.4375 48.640625 0.75 C 45.722656 2.945312 42.804688 4.046875 39.890625 4.046875 C 39.328125 4.046875 38.707031 3.988281 38.03125 3.875 C 30.519531 2.414062 25.863281 -7.679688 24.0625 -26.421875 C 22.15625 -23.835938 19.941406 -20.945312 17.421875 -17.75 C 14.898438 -14.550781 12.234375 -11.382812 9.421875 -8.25 C 8.972656 -7.800781 8.242188 -7.097656 7.234375 -6.140625 C 6.222656 -5.191406 5.046875 -4.4375 3.703125 -3.875 C 2.359375 -3.3125 1.007812 -3.367188 -0.34375 -4.046875 C -3.03125 -5.046875 -4.316406 -7.960938 -4.203125 -12.796875 C -4.203125 -15.597656 -3.671875 -19.070312 -2.609375 -23.21875 C -1.546875 -27.375 -0.0351562 -31.554688 1.921875 -35.765625 C 3.890625 -39.972656 6.191406 -43.703125 8.828125 -46.953125 C 11.472656 -50.210938 14.421875 -52.398438 17.671875 -53.515625 C 19.691406 -54.304688 22.160156 -54.445312 25.078125 -53.9375 C 27.992188 -53.4375 31.023438 -51.332031 34.171875 -47.625 C 34.734375 -46.957031 34.984375 -46.171875 34.921875 -45.265625 C 34.867188 -44.367188 34.503906 -43.644531 33.828125 -43.09375 C 33.160156 -42.53125 32.375 -42.273438 31.46875 -42.328125 C 30.570312 -42.390625 29.84375 -42.753906 29.28125 -43.421875 C 26.59375 -46.566406 24.265625 -48.050781 22.296875 -47.875 C 20.335938 -47.707031 18.6875 -47.125 17.34375 -46.125 C 14.875 -44.320312 12.628906 -41.738281 10.609375 -38.375 C 8.585938 -35.007812 6.898438 -31.472656 5.546875 -27.765625 C 4.203125 -24.066406 3.25 -20.617188 2.6875 -17.421875 C 2.125 -14.222656 1.957031 -11.894531 2.1875 -10.4375 C 2.519531 -10.65625 2.882812 -10.929688 3.28125 -11.265625 C 3.675781 -11.609375 4.097656 -12.0625 4.546875 -12.625 C 7.910156 -16.320312 10.992188 -19.992188 13.796875 -23.640625 C 16.609375 -27.296875 19.023438 -30.523438 21.046875 -33.328125 C 21.597656 -34.109375 22.125 -34.863281 22.625 -35.59375 C 23.132812 -36.320312 23.613281 -36.96875 24.0625 -37.53125 C 24.96875 -38.65625 26.148438 -38.992188 27.609375 -38.546875 C 29.066406 -38.203125 29.847656 -37.25 29.953125 -35.6875 C 30.296875 -28.382812 30.882812 -22.515625 31.71875 -18.078125 C 32.5625 -13.648438 33.488281 -10.34375 34.5 -8.15625 C 35.507812 -5.96875 36.460938 -4.484375 37.359375 -3.703125 C 38.265625 -2.921875 38.941406 -2.53125 39.390625 -2.53125 C 41.515625 -2.070312 44.929688 -4.253906 49.640625 -9.078125 C 54.359375 -13.910156 59.859375 -22.832031 66.140625 -35.84375 C 66.585938 -36.75 67.234375 -37.335938 68.078125 -37.609375 C 68.921875 -37.890625 69.734375 -37.804688 70.515625 -37.359375 Z M 70.515625 -37.359375 "></path></g></g></g><g fill="#fe4d00" fill-opacity="1"><g transform="translate(567.790352, 205.855114)"><g><path d="M 71.03125 -37.703125 C 71.8125 -37.253906 72.3125 -36.578125 72.53125 -35.671875 C 72.757812 -34.773438 72.59375 -33.992188 72.03125 -33.328125 C 67.320312 -25.585938 61.9375 -18.828125 55.875 -13.046875 C 49.820312 -7.265625 43.625 -2.300781 37.28125 1.84375 C 30.9375 6 24.847656 9.453125 19.015625 12.203125 C 13.179688 14.953125 8.078125 17.054688 3.703125 18.515625 C 2.128906 19.078125 0.894531 18.628906 0 17.171875 C -1.789062 21.660156 -3.363281 26.09375 -4.71875 30.46875 C -5.164062 31.925781 -6.226562 32.65625 -7.90625 32.65625 C -8.019531 32.65625 -8.191406 32.65625 -8.421875 32.65625 C -10.210938 32.3125 -11.109375 31.242188 -11.109375 29.453125 C -11.109375 28.441406 -10.710938 25.972656 -9.921875 22.046875 C -9.140625 18.117188 -8.101562 13.097656 -6.8125 6.984375 C -5.519531 0.867188 -4.03125 -5.914062 -2.34375 -13.375 C -0.664062 -20.84375 1.066406 -28.554688 2.859375 -36.515625 C 4.648438 -44.484375 6.414062 -52.3125 8.15625 -60 C 9.894531 -67.6875 11.550781 -74.785156 13.125 -81.296875 C 13.125 -81.628906 13.179688 -81.96875 13.296875 -82.3125 C 15.203125 -90.382812 16.773438 -96.890625 18.015625 -101.828125 C 20.585938 -112.148438 23.445312 -121.546875 26.59375 -130.015625 C 29.738281 -138.492188 32.851562 -145.3125 35.9375 -150.46875 C 39.019531 -155.632812 41.738281 -158.441406 44.09375 -158.890625 C 46 -159.222656 47.457031 -158.660156 48.46875 -157.203125 C 50.039062 -154.960938 49.898438 -150.304688 48.046875 -143.234375 C 46.203125 -136.160156 42.835938 -127.207031 37.953125 -116.375 C 33.078125 -105.550781 26.9375 -93.410156 19.53125 -79.953125 C 17.726562 -72.429688 15.816406 -64.296875 13.796875 -55.546875 C 11.773438 -46.796875 9.78125 -37.988281 7.8125 -29.125 C 5.851562 -20.257812 4.035156 -12.007812 2.359375 -4.375 C 5.492188 -10.882812 8.519531 -16.160156 11.4375 -20.203125 C 20.195312 -32.429688 27.15625 -37.757812 32.3125 -36.1875 C 33.320312 -35.851562 34.414062 -35.09375 35.59375 -33.90625 C 36.769531 -32.726562 37.414062 -30.515625 37.53125 -27.265625 C 37.644531 -23.898438 36.800781 -19.632812 35 -14.46875 C 33.207031 -9.3125 30.460938 -4.207031 26.765625 0.84375 C 35.179688 -4.09375 42.8125 -9.757812 49.65625 -16.15625 C 56.5 -22.550781 62.164062 -29.394531 66.65625 -36.6875 C 67.101562 -37.476562 67.742188 -37.957031 68.578125 -38.125 C 69.421875 -38.289062 70.238281 -38.148438 71.03125 -37.703125 Z M 42.921875 -149.625 C 41.015625 -146.707031 38.460938 -141.6875 35.265625 -134.5625 C 32.066406 -127.4375 28.894531 -117.816406 25.75 -105.703125 C 31.363281 -117.035156 35.488281 -126.316406 38.125 -133.546875 C 40.757812 -140.785156 42.359375 -146.144531 42.921875 -149.625 Z M 1.84375 12.28125 C 7.570312 10.15625 12.453125 7.015625 16.484375 2.859375 C 20.523438 -1.285156 23.695312 -5.660156 26 -10.265625 C 28.300781 -14.867188 29.789062 -18.910156 30.46875 -22.390625 C 31.03125 -24.859375 31.195312 -26.679688 30.96875 -27.859375 C 30.75 -29.035156 30.582031 -29.734375 30.46875 -29.953125 C 30.238281 -29.953125 29.617188 -29.695312 28.609375 -29.1875 C 27.597656 -28.6875 26.140625 -27.507812 24.234375 -25.65625 C 22.328125 -23.8125 19.859375 -20.757812 16.828125 -16.5 C 14.472656 -13.125 11.976562 -8.941406 9.34375 -3.953125 C 6.707031 1.035156 4.207031 6.445312 1.84375 12.28125 Z M 1.84375 12.28125 "></path></g></g></g><g fill="#fe4d00" fill-opacity="1"><g transform="translate(631.075924, 205.855114)"><g><path d="M 49.484375 -157.703125 C 50.941406 -155.578125 50.96875 -151.257812 49.5625 -144.75 C 48.164062 -138.238281 45.273438 -130.1875 40.890625 -120.59375 C 36.515625 -111 30.679688 -100.367188 23.390625 -88.703125 C 23.285156 -88.585938 23.175781 -88.472656 23.0625 -88.359375 C 20.144531 -76.460938 17.253906 -64.34375 14.390625 -52 C 11.523438 -39.664062 8.800781 -27.550781 6.21875 -15.65625 C 3.644531 -3.757812 1.289062 7.429688 -0.84375 17.921875 C -2.976562 28.410156 -4.800781 37.75 -6.3125 45.9375 C -7.820312 54.132812 -8.914062 60.703125 -9.59375 65.640625 C -9.476562 65.640625 -9.363281 65.640625 -9.25 65.640625 C -8.351562 65.972656 -7.707031 66.53125 -7.3125 67.3125 C -6.925781 68.101562 -6.898438 68.945312 -7.234375 69.84375 C -8.023438 71.976562 -8.835938 73.914062 -9.671875 75.65625 C -10.515625 77.394531 -11.664062 78.265625 -13.125 78.265625 C -13.46875 78.265625 -13.863281 78.207031 -14.3125 78.09375 C -15.320312 77.757812 -16.050781 77.054688 -16.5 75.984375 C -16.945312 74.921875 -17 72.789062 -16.65625 69.59375 C -16.320312 66.394531 -15.59375 61.488281 -14.46875 54.875 C -12.445312 42.75 -9.421875 26.925781 -5.390625 7.40625 C -2.472656 -6.28125 0.582031 -20.222656 3.78125 -34.421875 C 6.976562 -48.617188 10.148438 -62.304688 13.296875 -75.484375 C 16.441406 -88.671875 19.472656 -100.648438 22.390625 -111.421875 C 22.953125 -113.554688 23.789062 -116.53125 24.90625 -120.34375 C 26.03125 -124.15625 27.320312 -128.25 28.78125 -132.625 C 30.238281 -137 31.863281 -141.207031 33.65625 -145.25 C 35.457031 -149.289062 37.3125 -152.628906 39.21875 -155.265625 C 41.125 -157.898438 43.03125 -159.390625 44.9375 -159.734375 C 46.84375 -160.066406 48.359375 -159.390625 49.484375 -157.703125 Z M 28.953125 -110.921875 C 34.335938 -121.015625 38.125 -129.425781 40.3125 -136.15625 C 42.5 -142.894531 43.757812 -147.78125 44.09375 -150.8125 C 42.519531 -148.5625 40.382812 -144.320312 37.6875 -138.09375 C 35 -131.875 32.085938 -122.816406 28.953125 -110.921875 Z M 28.953125 -110.921875 "></path></g></g></g><g fill="#fe4d00" fill-opacity="1"><g transform="translate(656.659459, 205.855114)"><g><path d="M 56.890625 -37.53125 C 57.671875 -37.082031 58.117188 -36.410156 58.234375 -35.515625 C 58.347656 -34.617188 58.179688 -33.832031 57.734375 -33.15625 C 51.109375 -23.957031 45.046875 -16.351562 39.546875 -10.34375 C 34.054688 -4.34375 28.5625 0.617188 23.0625 4.546875 C 18.90625 7.460938 14.804688 8.921875 10.765625 8.921875 C 7.628906 8.921875 4.882812 8.078125 2.53125 6.390625 C 0.957031 5.273438 -0.582031 3.285156 -2.09375 0.421875 C -3.613281 -2.441406 -4.429688 -6.59375 -4.546875 -12.03125 C -4.660156 -17.476562 -3.3125 -24.632812 -0.5 -33.5 C -0.5 -33.5 -0.5 -33.550781 -0.5 -33.65625 C 2.863281 -44.4375 6.816406 -52.65625 11.359375 -58.3125 C 15.898438 -63.976562 19.800781 -66.867188 23.0625 -66.984375 C 25.644531 -67.097656 27.328125 -65.976562 28.109375 -63.625 C 29.335938 -60.363281 27.875 -55.734375 23.71875 -49.734375 C 19.570312 -43.734375 13.460938 -37.367188 5.390625 -30.640625 C 2.921875 -22.773438 1.738281 -16.625 1.84375 -12.1875 C 1.957031 -7.757812 2.578125 -4.5625 3.703125 -2.59375 C 4.828125 -0.632812 5.722656 0.617188 6.390625 1.171875 C 9.753906 3.640625 14.078125 2.96875 19.359375 -0.84375 C 24.515625 -4.4375 29.726562 -9.117188 35 -14.890625 C 40.28125 -20.671875 46.0625 -27.992188 52.34375 -36.859375 C 52.90625 -37.535156 53.632812 -37.957031 54.53125 -38.125 C 55.425781 -38.289062 56.210938 -38.09375 56.890625 -37.53125 Z M 21.875 -59.921875 C 20.644531 -59.128906 18.960938 -57.472656 16.828125 -54.953125 C 14.703125 -52.429688 12.515625 -48.753906 10.265625 -43.921875 C 14.304688 -47.859375 17.164062 -51.195312 18.84375 -53.9375 C 20.53125 -56.6875 21.539062 -58.679688 21.875 -59.921875 Z M 21.875 -59.921875 "></path></g></g></g></svg>